<svg width="19" height="13" viewBox="0 0 19 13" fill="none" xmlns="http://www.w3.org/2000/svg">
<path d="M8.51389 13C7.71738 13 6.96393 12.71 6.31812 12.2026C5.77994 12.4926 5.19871 12.6375 4.59595 12.6375C3.21822 12.6375 2.07728 11.8643 1.56063 10.632C1.47452 10.6078 1.38841 10.5836 1.3023 10.5595C0.634962 10.3662 0.161366 9.59294 0.0322031 8.57807C-0.118487 7.36989 0.247474 5.79926 1.38841 4.92937C1.5391 3.84201 1.96964 3.02045 2.61546 2.60967C2.93836 2.39219 3.39043 2.24721 3.92861 2.19888C4.03625 1.5948 4.25152 1.18401 4.639 0.845725C5.30635 0.265799 5.88758 0.217472 6.40423 0.67658C6.6195 0.507435 6.8563 0.362454 7.13615 0.265799C7.58822 0.0966544 7.97571 0 8.32014 0C8.77221 0 9.1597 0.144981 9.50413 0.434944C10.0423 0.0241634 10.6881 -0.0483271 11.4416 0.241636C11.4846 0.265799 11.4416 0.241636 11.4846 0.265799C11.8291 0.217472 12.195 0.265799 12.604 0.362454C13.0131 0.483271 13.3144 0.749071 13.5082 1.18401C13.9387 1.15985 14.3477 1.37732 14.9074 1.88476C15.2734 2.22305 15.5963 2.68216 15.8116 3.18959C17.0817 3.50372 17.9428 4.88104 18.0934 6.06506C18.115 6.28253 18.115 6.47584 18.0504 6.66914C19.1052 7.87732 19.1698 9.47212 18.7823 10.5353C18.4164 11.526 17.6629 12.0818 16.6727 12.0818C15.8546 12.0818 14.972 11.671 14.4338 11.0428C14.3693 11.1152 14.3262 11.1636 14.2831 11.2119C14.2186 11.2844 14.154 11.4052 14.1109 11.4777C13.7019 12.0576 13.2498 12.7342 12.2596 12.7342C11.786 12.7342 11.2478 12.5651 10.6235 12.2751C10.559 12.3476 10.4729 12.3959 10.4083 12.4442C9.84857 12.8067 9.18123 13 8.51389 13ZM6.72713 11.9368C7.24379 12.2993 7.86807 12.5167 8.51389 12.5167C9.09512 12.5167 9.65482 12.3476 10.1284 12.0576C9.9562 11.961 9.76246 11.8401 9.56871 11.7193C8.53541 11.1152 7.80349 11.0186 7.28684 11.0186C7.15768 11.4052 6.96393 11.7193 6.72713 11.9368ZM10.9249 11.9126C11.4416 12.1543 11.8721 12.2751 12.2596 12.2751C13.0346 12.2751 13.4005 11.7435 13.7665 11.1877C13.8311 11.0911 13.8957 10.9944 13.9602 10.9219C14.0033 10.8494 14.0894 10.777 14.1755 10.6803C14.0894 10.5353 14.0679 10.4145 14.0679 10.2937L14.0248 10.2695C13.8096 10.2212 13.745 10.197 13.6158 10.1487H13.5943C13.1637 10.6561 12.4749 10.8011 11.5277 10.6078C11.3339 11.1877 11.1402 11.6227 10.9249 11.9126ZM2.05575 10.632C2.52935 11.5743 3.47654 12.1301 4.59595 12.1301C5.06955 12.1301 5.52162 12.0335 5.93063 11.8401C5.73689 11.6227 5.54314 11.4052 5.37093 11.1394C4.98344 11.1394 4.66053 11.0911 4.3161 10.9944C3.8425 10.8494 3.39043 10.6078 3.00294 10.2454C2.65851 10.4628 2.35713 10.5836 2.05575 10.632ZM8.32014 10.6561C8.79374 10.777 9.26733 10.9944 9.78398 11.2844C10.0423 11.4535 10.3006 11.5743 10.5374 11.6952C10.7527 11.4294 10.9249 11.0428 11.0971 10.487C10.9249 10.4387 10.7742 10.3903 10.6451 10.342C10.2361 10.197 10.0638 9.78625 9.9562 9.37547C9.11664 9.39963 8.9229 9.71375 8.85832 9.97955C8.75068 10.342 8.55694 10.5595 8.32014 10.6561ZM5.93063 11.1152C6.05979 11.3085 6.21048 11.4535 6.36117 11.5985C6.53339 11.4777 6.68408 11.2844 6.81324 11.0186C6.66255 11.0186 6.53339 11.0428 6.40423 11.0669C6.23201 11.0911 6.08132 11.0911 5.93063 11.1152ZM14.7567 10.7045C15.2088 11.2361 15.9838 11.5743 16.6942 11.5743C17.1678 11.5743 18.0073 11.4052 18.4164 10.3178C18.7393 9.42379 18.6962 8.11896 17.8782 7.07993C17.5983 7.46654 17.1247 7.68401 16.6942 7.73234L16.7372 7.78067C17.4476 8.0223 17.8351 8.38476 17.9643 8.84387C18.115 9.44796 18.0934 9.90706 17.8567 10.2454C17.6414 10.5836 17.2324 10.7286 16.6296 10.7286C16.1991 10.7286 15.79 10.6561 14.929 10.4628H14.9505C14.8429 10.5836 14.7998 10.6561 14.7567 10.7045ZM4.85428 8.62639C5.02649 9.39963 5.28482 10.0762 5.60773 10.632C5.86605 10.632 6.10285 10.6078 6.33965 10.5836C6.53339 10.5595 6.74866 10.5353 6.96393 10.5353C7.00699 10.4145 7.02851 10.2695 7.05004 10.1245C6.81324 9.8829 6.6195 9.56877 6.44728 9.23048C6.01674 9.10966 5.65078 8.79554 5.30635 8.28811C5.17718 8.38476 5.02649 8.50558 4.85428 8.62639ZM3.36891 9.93123C3.69181 10.197 4.03625 10.3903 4.42373 10.5112C4.639 10.5836 4.8758 10.6078 5.09107 10.632C4.83275 10.1487 4.63901 9.56877 4.48832 8.94052C4.25152 9.13383 4.05777 9.32714 3.86403 9.49628C3.69181 9.64126 3.5196 9.78624 3.36891 9.93123ZM7.416 10.5353C7.45906 10.5353 7.50211 10.5353 7.54517 10.5353C7.50211 10.5112 7.48058 10.487 7.43753 10.4628C7.416 10.5353 7.416 10.5353 7.416 10.5353ZM15.1873 10.0762C15.79 10.2212 16.2421 10.2695 16.6081 10.2695C17.0601 10.2695 17.34 10.1729 17.4692 9.97955C17.5983 9.78625 17.6199 9.44796 17.4907 9.01301C17.4261 8.74721 17.1678 8.52974 16.7157 8.33643C16.7157 8.45725 16.6942 8.57807 16.6511 8.69888C16.4574 9.20632 15.8762 9.42379 15.3165 9.64126C15.3165 9.78625 15.2734 9.93123 15.1873 10.0762ZM11.6353 10.1487C12.2596 10.2695 12.7332 10.2212 13.0561 10.0037C12.6256 9.8829 12.1735 9.76208 11.7645 9.66543C11.7214 9.83457 11.6784 10.0037 11.6353 10.1487ZM7.52364 9.93123C7.71738 10.1004 7.91113 10.197 8.08334 10.197C8.14792 10.197 8.34167 10.197 8.4493 9.83457C8.62152 9.25465 9.09512 8.94052 9.84857 8.89219C9.82704 8.89219 9.84857 8.89219 9.80551 8.62639C9.76246 8.33643 9.69788 8.04647 9.63329 7.75651C9.33191 7.53903 9.05206 7.22491 8.77221 6.78996V6.81413C8.49236 7.92565 8.16945 8.72305 7.63127 9.06134C7.58822 9.37546 7.56669 9.66543 7.52364 9.93123ZM1.79743 8.33643C1.66826 8.65056 1.58216 9.18216 1.81895 10.052C1.81895 10.0762 1.84048 10.1245 1.84048 10.1487C2.09881 10.1487 2.35713 10.052 2.65851 9.85874C2.3356 9.44796 2.03422 8.94052 1.79743 8.33643ZM1.34536 5.60595C0.570381 6.37918 0.333583 7.5632 0.462745 8.52974C0.570381 9.32714 0.914815 9.93123 1.38841 10.1004C1.04398 8.79554 1.36688 8.11896 1.60368 7.80483C1.40994 7.07993 1.32383 6.30669 1.34536 5.60595ZM10.4083 9.42379C10.4944 9.71375 10.602 9.85874 10.7742 9.90706C10.8819 9.95539 11.0541 10.0037 11.2263 10.052C11.2694 9.90706 11.3124 9.76208 11.3555 9.56877C10.9895 9.49628 10.6881 9.44796 10.4083 9.42379ZM14.6706 9.95539C14.6922 9.95539 14.7137 9.97955 14.7352 9.97955C14.7567 9.95539 14.7783 9.93123 14.7783 9.8829C14.7567 9.90706 14.7137 9.93123 14.6706 9.95539ZM13.8311 9.73792C13.9387 9.76208 14.0464 9.78624 14.154 9.83457C14.3047 9.59294 14.6061 9.44796 14.9505 9.32714C14.929 9.06134 14.7998 8.8197 14.5415 8.5539C14.4338 8.45725 14.3262 8.33643 14.2401 8.21561C14.1325 8.5539 14.0679 8.84387 14.0248 9.0855C13.9818 9.30297 13.9172 9.52045 13.8311 9.73792ZM11.8721 9.15799C12.3672 9.27881 12.8839 9.44795 13.4005 9.59294C13.4866 9.42379 13.5512 9.20632 13.5943 8.96468C13.6373 8.65056 13.745 8.28811 13.8957 7.80483L13.4866 7.75651C13.1207 7.85316 12.6686 7.97398 12.1304 8.04647C12.0874 8.23978 12.0443 8.43308 11.9797 8.62639C11.8721 9.13383 11.9797 8.62639 11.8721 9.15799ZM2.12033 7.94981C2.3356 8.60223 2.65851 9.15799 3.046 9.59294C3.21822 9.44795 3.36891 9.27881 3.58418 9.10966C3.82097 8.89219 4.12235 8.67472 4.33763 8.40892H4.35915C4.29457 8.11896 4.27304 7.80483 4.22999 7.49071C4.16541 6.88662 4.10083 6.33085 4.03625 5.82342C3.75639 5.34015 3.47654 5.07435 3.17516 4.95353C3.02447 5.07435 2.93836 5.19517 2.93836 5.31598C2.91684 5.41264 2.95989 5.50929 3.046 5.60595C3.77792 6.59665 3.73487 7.24907 3.58418 7.61152C3.43349 7.94981 3.13211 8.11896 2.91684 8.11896C2.78767 8.11896 2.68004 8.07063 2.61546 7.99814C2.48629 7.87732 2.29255 7.85316 2.12033 7.94981ZM7.00699 9.27881C7.05004 9.3513 7.0931 9.42379 7.15768 9.49628C7.15768 9.42379 7.1792 9.3513 7.1792 9.25465C7.15768 9.25465 7.20073 9.25465 7.1792 9.25465C7.13615 9.27881 7.02851 9.27881 7.00699 9.27881ZM14.563 7.87732C14.6276 7.97398 14.7137 8.07063 14.7998 8.16729C15.1227 8.48141 15.2949 8.79554 15.3595 9.13383L15.4026 9.10966C15.79 8.96468 16.1775 8.77137 16.2636 8.50558C16.3067 8.40892 16.3067 8.31227 16.2636 8.16729C15.7685 8.04647 15.1658 7.94981 14.563 7.87732ZM10.2791 8.91636C10.602 8.94052 10.9895 8.98885 11.4416 9.0855C11.4846 8.91636 11.5277 8.72305 11.5707 8.52974C11.6138 8.38476 11.6353 8.23978 11.6784 8.0948C11.377 8.11896 11.0756 8.14312 10.7742 8.14312H10.7312C10.5159 8.14312 10.3222 8.11896 10.1284 8.04647C10.1715 8.21561 10.193 8.38476 10.2145 8.5539C10.2361 8.67472 10.2576 8.79554 10.2791 8.91636ZM6.77019 8.79554C6.8563 8.8197 6.96393 8.8197 7.07157 8.79554C7.11462 8.79554 7.1792 8.77138 7.22226 8.77138C7.26531 8.19145 7.28684 7.49071 7.39448 7.05576C7.07157 7.20074 6.77019 7.36989 6.49034 7.53903C6.51186 7.94981 6.59797 8.38476 6.77019 8.79554ZM5.69383 8.0223C5.86605 8.26394 6.03827 8.45725 6.23201 8.57807C6.1459 8.31227 6.10285 8.04647 6.08132 7.75651C5.93063 7.85316 5.80147 7.92565 5.69383 8.0223ZM7.93265 6.81413C7.76044 7.15242 7.69586 7.78067 7.6528 8.45725C7.95418 8.07063 8.16945 7.39405 8.34167 6.66914C8.21251 6.69331 8.08334 6.74164 7.93265 6.81413ZM4.61748 6.93494C4.639 7.10409 4.66053 7.24907 4.68206 7.41822C4.70359 7.65985 4.74664 7.87732 4.78969 8.0948C4.89733 8.0223 5.00497 7.92565 5.09107 7.85316C4.89733 7.58736 4.74664 7.24907 4.61748 6.93494ZM9.97773 7.46654C10.2145 7.61152 10.4729 7.68401 10.7312 7.68401H10.7527C11.0971 7.68401 11.4416 7.61152 11.786 7.5632C11.786 7.53903 11.8075 7.44238 11.8075 7.44238V7.49071C11.3124 7.39405 10.968 7.27323 10.7527 7.10409C10.3867 6.83829 10.3867 6.35502 10.4513 5.9684C10.0208 6.06506 9.61177 6.18587 9.22428 6.33085C9.65482 6.62082 9.84857 7.10409 9.97773 7.46654ZM4.46679 5.67844C4.63901 5.99256 4.81122 6.33085 4.96191 6.66914C5.1126 6.98327 5.26329 7.32156 5.43551 7.63569C5.62925 7.49071 5.84452 7.36989 6.03827 7.24907C6.05979 6.57249 6.25354 5.9684 6.59797 5.24349H6.57645C6.23201 5.171 6.01674 4.97769 5.9091 4.68773C5.84452 4.47026 5.75842 4.25279 5.71536 4.05948C5.22024 4.15613 4.74664 4.25279 4.3161 4.39777C4.38068 4.73606 4.42373 5.171 4.46679 5.67844ZM2.83073 7.58736C2.85225 7.58736 2.89531 7.61152 2.91684 7.61152C3.00294 7.61152 3.13211 7.53903 3.19669 7.39405C3.26127 7.24907 3.34738 6.78996 2.70156 5.92007C2.55088 5.7026 2.48629 5.48513 2.50782 5.24349C2.52935 5.12268 2.5724 5.02602 2.63698 4.9052C2.52935 4.92937 2.42171 4.95353 2.29255 5.00186C2.12033 5.07435 1.94812 5.14684 1.79743 5.24349C1.73284 5.9684 1.79743 6.74163 1.99117 7.49071C2.29255 7.34572 2.63698 7.39405 2.87378 7.61152L2.83073 7.58736ZM14.7998 7.41822C15.0797 7.46654 15.381 7.49071 15.6394 7.53903C15.5748 7.49071 15.5317 7.41821 15.4887 7.36989C15.2949 7.34572 15.0366 7.36989 14.7998 7.41822ZM16.2636 7.2974C16.6727 7.34572 17.2539 7.17658 17.5122 6.78996C17.1463 6.42751 16.6942 6.16171 16.156 5.94424C16.0914 6.28253 16.0053 6.57249 15.8762 6.81413C15.8546 6.86245 15.8116 6.93494 15.8116 6.98327C15.9838 7.0316 16.1345 7.15242 16.2636 7.2974ZM12.3672 7.12825C12.7332 7.17658 13.1207 7.22491 13.4651 7.27323C13.5512 7.24907 13.6373 7.22491 13.7234 7.20074C13.5728 6.74164 13.4866 6.21004 13.4436 5.53346C13.2714 5.53346 13.0776 5.55762 12.9054 5.55762C12.7117 5.99256 12.5395 6.5 12.3672 7.12825ZM13.8741 5.53346C13.9172 6.16171 14.0033 6.66915 14.154 7.07993C14.154 7.07993 14.154 7.07993 14.1755 7.07993L14.2616 6.88662C14.4338 6.45167 14.6061 6.01673 14.7352 5.60595C14.4554 5.55762 14.1755 5.53346 13.8741 5.53346ZM10.9249 5.87175C10.7742 6.54833 10.9464 6.66915 10.9895 6.71747C11.1617 6.83829 11.4846 6.95911 11.9367 7.05576C12.0874 6.5 12.2381 6.01673 12.4103 5.60595C11.9367 5.67844 11.4416 5.75093 10.9249 5.87175ZM7.11462 5.26766C6.77019 5.79926 6.55492 6.37918 6.49034 6.95911C6.8563 6.7658 7.24379 6.57249 7.6528 6.40335C7.82502 6.16171 8.04029 6.04089 8.32014 6.04089C8.19098 5.77509 8.06182 5.48513 7.93265 5.14684C7.63127 5.21933 7.35142 5.26766 7.11462 5.26766ZM15.1658 5.65427C15.0366 6.06506 14.8644 6.52416 14.6922 6.95911C14.8859 6.91078 15.1012 6.88662 15.2949 6.88662L15.4026 6.86245C15.4241 6.7658 15.4456 6.66914 15.5102 6.54833C15.6178 6.33085 15.7039 6.06506 15.747 5.77509C15.5748 5.72677 15.3595 5.67844 15.1658 5.65427ZM16.2206 5.4368C16.7803 5.63011 17.2539 5.92007 17.6629 6.28253C17.6629 6.2342 17.6629 6.18587 17.6629 6.13755C17.5337 5.21933 16.9095 4.15613 16.0268 3.76952C16.1775 4.32528 16.2421 4.88104 16.2206 5.4368ZM8.96595 5.92007C9.4826 5.75093 10.0208 5.60595 10.5805 5.46097C10.7097 5.05019 10.8819 4.59108 11.0756 4.10781C10.8388 4.1803 10.5805 4.27695 10.3437 4.37361C9.9562 4.51859 9.56871 4.63941 9.18123 4.78439C9.13817 5.00186 9.09512 5.19517 9.05206 5.41264C9.03054 5.58178 8.98748 5.75093 8.96595 5.92007ZM8.38472 5.02602C8.47083 5.21933 8.53541 5.38848 8.59999 5.55762C8.62152 5.46097 8.64305 5.38848 8.64305 5.29182C8.66457 5.171 8.6861 5.05019 8.70763 4.92937C8.59999 4.95353 8.49236 5.00186 8.38472 5.02602ZM11.6353 3.93866C11.5923 4.05948 11.5492 4.15613 11.5062 4.27695C11.3555 4.66357 11.2048 5.02602 11.0756 5.36431C11.6138 5.24349 12.1304 5.171 12.6256 5.12268H12.604C12.8408 4.66357 13.1422 4.30112 13.3575 4.01115V3.98699C13.3575 3.81784 13.379 3.67286 13.379 3.50372C12.8408 3.55204 12.195 3.74535 11.6353 3.93866ZM15.2949 5.171C15.4671 5.19517 15.6394 5.24349 15.8116 5.29182C15.8331 4.73606 15.7255 4.15613 15.5317 3.62453C15.4026 3.60037 15.2734 3.60037 15.1442 3.62453C15.4456 4.10781 15.381 4.76022 15.2949 5.171ZM13.8526 5.05019C14.197 5.05019 14.5415 5.07435 14.8429 5.12268C15.0366 4.27695 14.8429 3.93866 14.6276 3.74535C14.3693 3.84201 14.0894 4.01115 13.8311 4.22862C13.8526 4.49442 13.8526 4.76022 13.8526 5.05019ZM13.4221 4.66357C13.336 4.78439 13.2498 4.9052 13.1637 5.05019C13.2498 5.05019 13.336 5.05019 13.4221 5.05019C13.4221 4.92937 13.4221 4.78439 13.4221 4.66357ZM3.62723 4.66357C3.75639 4.73606 3.86403 4.83271 3.95014 4.95353C3.92861 4.80855 3.92861 4.66357 3.90708 4.54275C3.82097 4.59108 3.73487 4.61524 3.62723 4.66357ZM6.16743 3.98699C6.21048 4.15613 6.27507 4.32528 6.33965 4.51859C6.36117 4.59108 6.42576 4.78439 6.89935 4.80855C7.0931 4.54275 7.30837 4.30112 7.54517 4.08364L7.50211 3.96283C7.1792 3.89033 6.70561 3.9145 6.16743 3.98699ZM7.71738 4.54275C7.6528 4.61524 7.58822 4.68773 7.52364 4.73606C7.60975 4.7119 7.67433 4.7119 7.76044 4.68773C7.71738 4.54275 7.73891 4.59108 7.71738 4.54275ZM3.86403 2.70632C3.41196 2.75465 3.06753 2.8513 2.8092 3.04461C2.35713 3.33457 2.03422 3.9145 1.86201 4.66357C1.94812 4.61524 2.05575 4.59108 2.14186 4.54275C2.48629 4.42193 2.78767 4.39777 3.06753 4.4461H3.08905C3.30432 4.30112 3.45501 4.1803 3.88556 4.05948C3.86403 3.50372 3.8425 3.06877 3.86403 2.70632ZM8.06182 4.20446C8.10487 4.32528 8.14792 4.47026 8.21251 4.59108C8.40625 4.54275 8.62152 4.47026 8.85832 4.39777C9.09512 3.35874 9.37497 2.29554 9.82704 1.49814C9.7194 1.329 9.61177 1.18401 9.50413 1.0632C9.31039 1.25651 9.1597 1.47398 8.98748 1.69145C8.72916 2.0539 8.47083 2.39219 8.1264 2.56134C7.97571 2.63383 7.76044 2.70632 7.52364 2.73048C7.60975 2.97212 7.71738 3.23792 7.80349 3.47955C7.93265 3.52788 8.10487 3.60037 8.16945 3.79368C8.19098 3.93866 8.14792 4.08364 8.06182 4.20446ZM10.0638 1.95725C9.74093 2.5855 9.50413 3.40706 9.31039 4.22862C9.61177 4.13197 9.91315 4.01115 10.2145 3.9145C10.5805 3.79368 10.9464 3.6487 11.3124 3.52788C11.4846 3.1171 11.6353 2.68216 11.743 2.29554C11.6138 2.36803 11.5277 2.44052 11.4416 2.48885C11.2263 2.63383 11.0756 2.73048 10.8819 2.73048C10.5805 2.73048 10.3437 2.46468 10.0638 1.95725ZM4.3161 2.65799C4.29457 2.97212 4.29457 3.3829 4.3161 3.89033C4.72511 3.76952 5.17718 3.6487 5.62925 3.57621C5.56467 3.26208 5.54314 2.97212 5.54314 2.70632C5.13413 2.68216 4.70359 2.65799 4.3161 2.65799ZM13.8311 3.47955C13.8311 3.52788 13.8311 3.60037 13.8311 3.6487C13.8957 3.60037 13.9818 3.55204 14.0464 3.50372C13.9818 3.47955 13.9172 3.47955 13.8311 3.47955ZM5.97369 2.73048C5.97369 2.97212 6.01674 3.21375 6.05979 3.50372C6.53339 3.43123 6.98546 3.40706 7.32989 3.43123C7.24379 3.21375 7.1792 2.99628 7.0931 2.77881C6.72713 2.80297 6.36117 2.77881 5.97369 2.73048ZM12.2381 2.0539C12.1735 2.46468 12.0228 2.89963 11.8506 3.35874C12.4964 3.16543 12.9915 3.04461 13.379 2.99628C13.3575 2.56134 13.336 2.07807 13.2283 1.69145C13.0561 1.73978 12.8408 1.81227 12.5825 1.90892C12.4533 1.98141 12.3672 2.00558 12.2381 2.0539ZM13.8311 2.99628C13.9387 2.99628 14.0464 3.02045 14.154 3.04461C14.3693 3.09294 14.5415 3.16543 14.6922 3.23792C14.8859 3.18959 15.0797 3.16543 15.2949 3.14126C15.1227 2.80297 14.8859 2.51301 14.6276 2.27138C14.1755 1.86059 13.9172 1.71561 13.6804 1.69145C13.7665 2.07807 13.8096 2.53717 13.8311 2.99628ZM5.99521 2.27138C6.31812 2.29554 6.6195 2.3197 6.87782 2.3197C6.70561 1.90892 6.53339 1.5948 6.36117 1.35316C6.16743 1.5948 6.03827 1.88476 5.99521 2.27138ZM6.70561 1.01487C6.92088 1.30483 7.13615 1.71561 7.35142 2.27138C7.60975 2.24721 7.80349 2.19888 7.95418 2.12639C8.19098 2.00558 8.42778 1.69145 8.66457 1.37732C8.81526 1.15985 8.98748 0.942379 9.1597 0.749071C8.90137 0.579926 8.62152 0.483271 8.32014 0.483271C8.01876 0.483271 7.69586 0.555762 7.28684 0.724907C7.05004 0.797398 6.8563 0.918215 6.70561 1.01487ZM10.3222 1.5223C10.4944 1.83643 10.7312 2.24721 10.8603 2.24721C10.9249 2.24721 11.0541 2.17472 11.2048 2.07807C11.377 1.98141 11.5707 1.83643 11.8291 1.71561C11.8721 1.08736 11.6353 0.869889 11.3985 0.749071C11.011 0.821561 10.6451 1.08736 10.3222 1.5223ZM5.54314 2.22305C5.60773 1.73978 5.77994 1.329 6.05979 0.990706C5.71536 0.724907 5.3494 0.797398 4.89733 1.20818C4.61748 1.44981 4.46679 1.73978 4.38068 2.17472C4.74664 2.17472 5.17718 2.19888 5.54314 2.22305ZM12.0874 0.724907C12.2165 0.942379 12.2811 1.20818 12.2811 1.5223H12.3027C12.3027 1.5223 12.3027 1.5223 12.4533 1.47398C12.6686 1.37732 12.8624 1.30483 13.0561 1.25651C12.9269 1.03903 12.7332 0.894052 12.4964 0.821561C12.3457 0.773234 12.2165 0.749071 12.0874 0.724907ZM10.0854 1.0632C10.2791 0.869888 10.4513 0.67658 10.6666 0.555762C10.3652 0.531598 10.0854 0.604089 9.84857 0.773234C9.91315 0.869888 9.99926 0.966543 10.0854 1.0632Z" fill="#2D5727"/>
</svg>
