<svg width="108" height="14" viewBox="0 0 108 14" fill="none" xmlns="http://www.w3.org/2000/svg">
<path d="M23.2843 10.7191V10.3891C23.5376 10.3758 23.711 10.3191 23.8043 10.2191C23.8976 10.1125 23.9476 9.96915 23.9543 9.78915C23.9676 9.60248 23.9743 9.39248 23.9743 9.15915V4.83915C23.9743 4.70581 23.9776 4.57915 23.9843 4.45915C23.991 4.33248 23.9976 4.21915 24.0043 4.11915C23.8843 4.12581 23.7643 4.13248 23.6443 4.13915C23.5243 4.14581 23.4043 4.15248 23.2843 4.15915V3.71915C23.6576 3.71248 24.0343 3.70581 24.4143 3.69915C24.801 3.69248 25.1876 3.69581 25.5743 3.70915C26.221 3.71581 26.741 3.79248 27.1343 3.93915C27.5343 4.07915 27.8276 4.28248 28.0143 4.54915C28.201 4.80915 28.2943 5.12581 28.2943 5.49915C28.301 5.75915 28.251 6.02581 28.1443 6.29915C28.0443 6.56581 27.8576 6.80581 27.5843 7.01915C27.3176 7.23248 26.931 7.39248 26.4243 7.49915C26.5576 7.59248 26.6743 7.71248 26.7743 7.85915C26.8743 8.00581 26.9876 8.17581 27.1143 8.36915L27.7943 9.43915C27.9076 9.61915 28.0176 9.78248 28.1243 9.92915C28.231 10.0691 28.3543 10.1825 28.4943 10.2691C28.6343 10.3491 28.8076 10.3891 29.0143 10.3891V10.7191H27.7543C27.561 10.5458 27.3976 10.3725 27.2643 10.1991C27.1376 10.0258 27.0043 9.82915 26.8643 9.60915L26.1943 8.53915C26.1076 8.39915 26.0076 8.23915 25.8943 8.05915C25.7876 7.87248 25.6643 7.71581 25.5243 7.58915C25.4176 7.59581 25.3043 7.59915 25.1843 7.59915C25.071 7.59915 24.9576 7.59581 24.8443 7.58915V9.52915C24.8443 9.70915 24.841 9.86581 24.8343 9.99915C24.8343 10.1258 24.8276 10.2325 24.8143 10.3191C24.8943 10.3125 24.9743 10.3091 25.0543 10.3091C25.1343 10.3025 25.2143 10.2958 25.2943 10.2891C25.3743 10.2825 25.4543 10.2791 25.5343 10.2791V10.7191H23.2843ZM25.4643 7.21915C25.831 7.20581 26.151 7.14581 26.4243 7.03915C26.7043 6.93248 26.9243 6.76248 27.0843 6.52915C27.2443 6.29581 27.3243 5.98915 27.3243 5.60915C27.3243 5.35581 27.2876 5.13581 27.2143 4.94915C27.1476 4.75581 27.041 4.59581 26.8943 4.46915C26.7476 4.34248 26.561 4.24915 26.3343 4.18915C26.1076 4.12248 25.841 4.08915 25.5343 4.08915C25.2876 4.08915 25.1143 4.13915 25.0143 4.23915C24.921 4.33915 24.8676 4.47915 24.8543 4.65915C24.8476 4.83248 24.8443 5.03915 24.8443 5.27915V7.19915C24.951 7.20581 25.051 7.21248 25.1443 7.21915C25.2443 7.22581 25.351 7.22581 25.4643 7.21915ZM33.0436 8.12915C33.0436 7.83581 33.0036 7.62581 32.9236 7.49915C32.8436 7.37248 32.7169 7.29581 32.5436 7.26915C32.3703 7.24248 32.1403 7.23581 31.8536 7.24915L31.1236 7.27915V9.56915C31.1236 9.74915 31.1203 9.90248 31.1136 10.0291C31.1136 10.1558 31.1069 10.2625 31.0936 10.3491L33.0036 10.3191C33.2969 10.3125 33.5503 10.2658 33.7636 10.1791C33.9769 10.0858 34.1436 9.92581 34.2636 9.69915C34.3836 9.47248 34.4436 9.16248 34.4436 8.76915H34.7836L34.7236 10.7191H29.5636V10.3891C29.8169 10.3758 29.9903 10.3191 30.0836 10.2191C30.1769 10.1125 30.2269 9.96915 30.2336 9.78915C30.2469 9.60248 30.2536 9.39248 30.2536 9.15915V4.83915C30.2536 4.70581 30.2569 4.57915 30.2636 4.45915C30.2703 4.33248 30.2769 4.21915 30.2836 4.11915C30.1636 4.12581 30.0436 4.13248 29.9236 4.13915C29.8036 4.14581 29.6836 4.15248 29.5636 4.15915V3.71915H34.3736L34.4236 5.46915H34.0936C34.0936 5.07581 34.0336 4.77915 33.9136 4.57915C33.7936 4.37248 33.6303 4.23581 33.4236 4.16915C33.2236 4.09581 32.9969 4.06248 32.7436 4.06915L31.8836 4.08915C31.6369 4.09581 31.4603 4.14248 31.3536 4.22915C31.2469 4.31581 31.1803 4.44581 31.1536 4.61915C31.1336 4.78581 31.1236 5.00581 31.1236 5.27915V6.87915L33.0036 6.88915L32.9336 6.02915H33.3736V8.12915H33.0436ZM35.1743 10.7191V10.3891C35.3743 10.3891 35.5276 10.3358 35.6343 10.2291C35.741 10.1225 35.8276 9.97581 35.8943 9.78915C35.9676 9.60248 36.051 9.38581 36.1443 9.13915L38.2043 3.52915H38.4443L40.6743 9.21915C40.7276 9.35915 40.7876 9.53915 40.8543 9.75915C40.921 9.97915 40.9476 10.1658 40.9343 10.3191C41.0476 10.3125 41.161 10.3058 41.2743 10.2991C41.3876 10.2925 41.501 10.2858 41.6143 10.2791V10.7191H39.3243V10.3891C39.5776 10.3825 39.7443 10.3258 39.8243 10.2191C39.9043 10.1125 39.9343 9.98581 39.9143 9.83915C39.8943 9.69248 39.861 9.55915 39.8143 9.43915L39.4643 8.49915L36.8643 8.55915L36.5143 9.62915C36.4676 9.78915 36.4243 9.91581 36.3843 10.0091C36.351 10.1025 36.311 10.2058 36.2643 10.3191C36.3976 10.3125 36.5276 10.3058 36.6543 10.2991C36.7876 10.2925 36.9176 10.2858 37.0443 10.2791V10.7191H35.1743ZM37.0143 8.12915H39.3243L38.6143 6.21915C38.541 6.01248 38.4643 5.80915 38.3843 5.60915C38.311 5.40248 38.2376 5.19581 38.1643 4.98915H38.1443C38.0776 5.17581 38.0076 5.36248 37.9343 5.54915C37.8676 5.73581 37.7976 5.92581 37.7243 6.11915L37.0143 8.12915ZM47.5253 5.94915C47.4586 5.32248 47.2386 4.83581 46.8653 4.48915C46.4986 4.14248 46.0253 3.96915 45.4453 3.96915C45.0919 3.96915 44.7586 4.04581 44.4453 4.19915C44.1386 4.34581 43.8686 4.55915 43.6353 4.83915C43.4019 5.11915 43.2186 5.45581 43.0853 5.84915C42.9519 6.24248 42.8853 6.68581 42.8853 7.17915C42.8853 7.80581 43.0053 8.35915 43.2453 8.83915C43.4853 9.31915 43.8086 9.69248 44.2153 9.95915C44.6219 10.2258 45.0719 10.3591 45.5653 10.3591C45.9986 10.3591 46.4253 10.2625 46.8453 10.0691C47.2653 9.86915 47.6086 9.58248 47.8753 9.20915L48.1353 9.41915C47.8486 9.81248 47.5386 10.1158 47.2053 10.3291C46.8719 10.5425 46.5386 10.6858 46.2053 10.7591C45.8786 10.8391 45.5786 10.8791 45.3053 10.8791C44.8053 10.8791 44.3453 10.7891 43.9253 10.6091C43.5119 10.4291 43.1519 10.1791 42.8453 9.85915C42.5453 9.53248 42.3119 9.15581 42.1453 8.72915C41.9853 8.29581 41.9053 7.82915 41.9053 7.32915C41.9053 6.85581 41.9753 6.39581 42.1153 5.94915C42.2619 5.50248 42.4786 5.09915 42.7653 4.73915C43.0519 4.37915 43.4119 4.09248 43.8453 3.87915C44.2853 3.66581 44.7953 3.55915 45.3753 3.55915C45.7486 3.55915 46.1019 3.60915 46.4353 3.70915C46.7686 3.80915 47.0886 3.96248 47.3953 4.16915L47.3453 3.62915H47.8853V5.94915H47.5253ZM54.2274 5.82915C54.2208 5.43581 54.1808 5.10915 54.1074 4.84915C54.0341 4.58915 53.9041 4.39581 53.7174 4.26915C53.5374 4.13581 53.2741 4.07248 52.9274 4.07915H52.0774L52.0674 9.52915C52.0674 9.70915 52.0641 9.86581 52.0574 9.99915C52.0574 10.1258 52.0508 10.2325 52.0374 10.3191C52.1774 10.3125 52.3141 10.3058 52.4474 10.2991C52.5874 10.2925 52.7274 10.2858 52.8674 10.2791V10.7191H50.5174V10.3891C50.7708 10.3758 50.9408 10.3158 51.0274 10.2091C51.1208 10.1025 51.1708 9.95915 51.1774 9.77915C51.1908 9.59248 51.1974 9.38581 51.1974 9.15915L51.2074 4.08915L50.1774 4.09915C49.7574 4.09915 49.4608 4.23915 49.2874 4.51915C49.1141 4.79915 49.0274 5.23581 49.0274 5.82915H48.6574L48.7174 3.71915H54.5474L54.6074 5.82915H54.2274ZM57.6339 4.04915C57.3873 4.05581 57.2139 4.11248 57.1139 4.21915C57.0206 4.32581 56.9673 4.46915 56.9539 4.64915C56.9473 4.82915 56.9439 5.03915 56.9439 5.27915V9.52915C56.9439 9.70915 56.9406 9.86581 56.9339 9.99915C56.9339 10.1258 56.9273 10.2325 56.9139 10.3191C57.0339 10.3125 57.1539 10.3058 57.2739 10.2991C57.3939 10.2925 57.5139 10.2858 57.6339 10.2791V10.7191H55.3839V10.3891C55.6373 10.3758 55.8106 10.3191 55.9039 10.2191C55.9973 10.1125 56.0473 9.96915 56.0539 9.78915C56.0673 9.60248 56.0739 9.39248 56.0739 9.15915V4.83915C56.0739 4.70581 56.0773 4.57915 56.0839 4.45915C56.0906 4.33248 56.0973 4.21915 56.1039 4.11915C55.9839 4.12581 55.8639 4.13248 55.7439 4.13915C55.6239 4.14581 55.5039 4.15248 55.3839 4.15915V3.71915H57.6339V4.04915ZM61.4035 10.8191L59.1335 5.49915C58.9869 5.15915 58.8835 4.88581 58.8235 4.67915C58.7635 4.46581 58.7235 4.28581 58.7035 4.13915C58.6102 4.14581 58.5169 4.14915 58.4235 4.14915C58.3302 4.14915 58.2369 4.15248 58.1435 4.15915V3.71915H60.4635L60.4535 4.05915C60.1202 4.07915 59.9202 4.18248 59.8535 4.36915C59.7869 4.54915 59.8202 4.80581 59.9535 5.13915C60.1135 5.53248 60.2669 5.91248 60.4135 6.27915C60.5602 6.64581 60.7235 7.04248 60.9035 7.46915C61.0635 7.84248 61.2169 8.20248 61.3635 8.54915C61.5169 8.88915 61.6335 9.17248 61.7135 9.39915H61.7335C61.8069 9.16581 61.8802 8.94248 61.9535 8.72915C62.0335 8.51581 62.1269 8.26248 62.2335 7.96915C62.4335 7.40915 62.6002 6.93581 62.7335 6.54915C62.8735 6.16248 62.9935 5.83248 63.0935 5.55915C63.1935 5.28581 63.2769 5.05248 63.3435 4.85915C63.4035 4.68581 63.4569 4.53915 63.5035 4.41915C63.5502 4.29915 63.5935 4.19915 63.6335 4.11915C63.5069 4.12581 63.3802 4.13248 63.2535 4.13915C63.1269 4.14581 62.9969 4.15248 62.8635 4.15915V3.71915H64.8935V4.04915C64.6002 4.06248 64.3735 4.13915 64.2135 4.27915C64.0602 4.41915 63.9202 4.66915 63.7935 5.02915C63.7802 5.06248 63.7635 5.10915 63.7435 5.16915C63.7235 5.22248 63.6902 5.31248 63.6435 5.43915C63.5969 5.56581 63.5302 5.75248 63.4435 5.99915C63.3569 6.23915 63.2369 6.56581 63.0835 6.97915C62.9369 7.39248 62.7469 7.91248 62.5135 8.53915C62.2869 9.16581 62.0102 9.92581 61.6835 10.8191H61.4035ZM68.7467 8.12915C68.7467 7.83581 68.7067 7.62581 68.6267 7.49915C68.5467 7.37248 68.4201 7.29581 68.2467 7.26915C68.0734 7.24248 67.8434 7.23581 67.5567 7.24915L66.8267 7.27915V9.56915C66.8267 9.74915 66.8234 9.90248 66.8167 10.0291C66.8167 10.1558 66.8101 10.2625 66.7967 10.3491L68.7067 10.3191C69.0001 10.3125 69.2534 10.2658 69.4667 10.1791C69.6801 10.0858 69.8467 9.92581 69.9667 9.69915C70.0867 9.47248 70.1467 9.16248 70.1467 8.76915H70.4867L70.4267 10.7191H65.2667V10.3891C65.5201 10.3758 65.6934 10.3191 65.7867 10.2191C65.8801 10.1125 65.9301 9.96915 65.9367 9.78915C65.9501 9.60248 65.9567 9.39248 65.9567 9.15915V4.83915C65.9567 4.70581 65.9601 4.57915 65.9667 4.45915C65.9734 4.33248 65.9801 4.21915 65.9867 4.11915C65.8667 4.12581 65.7467 4.13248 65.6267 4.13915C65.5067 4.14581 65.3867 4.15248 65.2667 4.15915V3.71915H70.0767L70.1267 5.46915H69.7967C69.7967 5.07581 69.7367 4.77915 69.6167 4.57915C69.4967 4.37248 69.3334 4.23581 69.1267 4.16915C68.9267 4.09581 68.7001 4.06248 68.4467 4.06915L67.5867 4.08915C67.3401 4.09581 67.1634 4.14248 67.0567 4.22915C66.9501 4.31581 66.8834 4.44581 66.8567 4.61915C66.8367 4.78581 66.8267 5.00581 66.8267 5.27915V6.87915L68.7067 6.88915L68.6367 6.02915H69.0767V8.12915H68.7467ZM77.8844 10.8191C77.5911 10.1525 77.2944 9.48915 76.9944 8.82915C76.6944 8.16248 76.4011 7.48915 76.1144 6.80915C76.0211 6.59581 75.9277 6.38248 75.8344 6.16915C75.7477 5.94915 75.6611 5.72915 75.5744 5.50915C75.4944 5.28915 75.4111 5.06915 75.3244 4.84915C75.3244 4.92248 75.3211 4.99581 75.3144 5.06915C75.3144 5.14248 75.3144 5.21581 75.3144 5.28915C75.3077 5.52915 75.2977 5.81915 75.2844 6.15915C75.2777 6.49248 75.2677 6.85248 75.2544 7.23915C75.2411 7.61915 75.2311 8.00248 75.2244 8.38915C75.2177 8.76915 75.2111 9.12915 75.2044 9.46915C75.1977 9.61581 75.1911 9.76248 75.1844 9.90915C75.1844 10.0558 75.1777 10.1925 75.1644 10.3191C75.2911 10.3125 75.4144 10.3058 75.5344 10.2991C75.6611 10.2925 75.7877 10.2858 75.9144 10.2791V10.7191H74.0044V10.3891C74.2111 10.3825 74.3611 10.3391 74.4544 10.2591C74.5544 10.1725 74.6177 10.0591 74.6444 9.91915C74.6711 9.77915 74.6877 9.62915 74.6944 9.46915L74.8844 4.90915C74.8911 4.77581 74.8944 4.64248 74.8944 4.50915C74.9011 4.37581 74.9077 4.24581 74.9144 4.11915C74.7944 4.12581 74.6744 4.13248 74.5544 4.13915C74.4344 4.13915 74.3144 4.14248 74.1944 4.14915V3.71915H75.7244L77.4444 7.68915C77.5311 7.88915 77.6144 8.08915 77.6944 8.28915C77.7811 8.48915 77.8677 8.68915 77.9544 8.88915C78.0477 9.08915 78.1377 9.29248 78.2244 9.49915H78.2444C78.3177 9.31915 78.4044 9.10581 78.5044 8.85915C78.6044 8.60581 78.6877 8.38915 78.7544 8.20915C79.0477 7.47581 79.3511 6.74248 79.6644 6.00915C79.9844 5.26915 80.2977 4.50581 80.6044 3.71915H82.0844V4.04915C81.9177 4.04248 81.7811 4.07581 81.6744 4.14915C81.5677 4.21581 81.4911 4.32915 81.4444 4.48915C81.3977 4.64915 81.3811 4.86581 81.3944 5.13915L81.6544 9.68915C81.6677 9.80248 81.6744 9.91248 81.6744 10.0191C81.6744 10.1258 81.6744 10.2225 81.6744 10.3091C81.7944 10.3025 81.9144 10.2991 82.0344 10.2991C82.1611 10.2925 82.2844 10.2858 82.4044 10.2791V10.7191H80.1644V10.3891C80.3711 10.3825 80.5244 10.3325 80.6244 10.2391C80.7244 10.1458 80.7844 10.0125 80.8044 9.83915C80.8311 9.66581 80.8377 9.45248 80.8244 9.19915L80.6244 5.89915C80.6177 5.79248 80.6111 5.68581 80.6044 5.57915C80.5977 5.47248 80.5911 5.36581 80.5844 5.25915C80.5777 5.15248 80.5711 5.04581 80.5644 4.93915C80.5444 4.98581 80.5211 5.03581 80.4944 5.08915C80.4744 5.14248 80.4544 5.19915 80.4344 5.25915L78.1844 10.8191H77.8844ZM85.5441 4.04915C85.2974 4.05581 85.1241 4.11248 85.0241 4.21915C84.9307 4.32581 84.8774 4.46915 84.8641 4.64915C84.8574 4.82915 84.8541 5.03915 84.8541 5.27915V9.52915C84.8541 9.70915 84.8507 9.86581 84.8441 9.99915C84.8441 10.1258 84.8374 10.2325 84.8241 10.3191C84.9441 10.3125 85.0641 10.3058 85.1841 10.2991C85.3041 10.2925 85.4241 10.2858 85.5441 10.2791V10.7191H83.2941V10.3891C83.5474 10.3758 83.7207 10.3191 83.8141 10.2191C83.9074 10.1125 83.9574 9.96915 83.9641 9.78915C83.9774 9.60248 83.9841 9.39248 83.9841 9.15915V4.83915C83.9841 4.70581 83.9874 4.57915 83.9941 4.45915C84.0007 4.33248 84.0074 4.21915 84.0141 4.11915C83.8941 4.12581 83.7741 4.13248 83.6541 4.13915C83.5341 4.14581 83.4141 4.15248 83.2941 4.15915V3.71915H85.5441V4.04915ZM92.1137 10.8791L88.1237 5.51915C88.0637 5.43915 88.0037 5.36248 87.9437 5.28915C87.8904 5.20915 87.8337 5.12915 87.7737 5.04915H87.7637L87.7937 9.32915C87.7937 9.49581 87.7937 9.66248 87.7937 9.82915C87.7937 9.99581 87.787 10.1591 87.7737 10.3191C87.8937 10.3125 88.0137 10.3058 88.1337 10.2991C88.2537 10.2925 88.3737 10.2858 88.4937 10.2791V10.7191H86.6637V10.3891C86.8704 10.3891 87.017 10.3458 87.1037 10.2591C87.197 10.1658 87.257 10.0591 87.2837 9.93915C87.3104 9.81248 87.3237 9.69915 87.3237 9.59915L87.3337 4.78915C87.3337 4.67581 87.3337 4.56248 87.3337 4.44915C87.3337 4.33581 87.3337 4.22581 87.3337 4.11915C87.227 4.12581 87.117 4.13248 87.0037 4.13915C86.8904 4.14581 86.777 4.15248 86.6637 4.15915V3.71915H87.8537L91.6037 8.73915C91.6904 8.85248 91.7737 8.96581 91.8537 9.07915C91.9404 9.19248 92.027 9.30581 92.1137 9.41915H92.1237L92.1337 4.83915C92.1337 4.70581 92.137 4.57915 92.1437 4.45915C92.1504 4.33248 92.157 4.21915 92.1637 4.11915C92.0437 4.12581 91.9237 4.13248 91.8037 4.13915C91.6837 4.14581 91.5637 4.15248 91.4437 4.15915V3.71915H93.2837V4.04915C93.037 4.05581 92.867 4.11248 92.7737 4.21915C92.6804 4.32581 92.6304 4.46915 92.6237 4.64915C92.617 4.82915 92.6137 5.03915 92.6137 5.27915L92.5937 10.8791H92.1137ZM94.2609 10.3891C94.5142 10.3758 94.6875 10.3191 94.7809 10.2191C94.8742 10.1125 94.9242 9.96915 94.9309 9.78915C94.9442 9.60248 94.9509 9.39248 94.9509 9.15915V4.83915C94.9509 4.70581 94.9542 4.57915 94.9609 4.45915C94.9675 4.33248 94.9742 4.21915 94.9809 4.11915C94.8609 4.12581 94.7409 4.13248 94.6209 4.13915C94.5009 4.14581 94.3809 4.15248 94.2609 4.15915V3.71915L96.6209 3.70915C97.2209 3.70915 97.7709 3.77915 98.2709 3.91915C98.7709 4.05915 99.2009 4.27581 99.5609 4.56915C99.9275 4.85581 100.208 5.22248 100.401 5.66915C100.601 6.10915 100.701 6.62915 100.701 7.22915C100.701 7.68915 100.621 8.12915 100.461 8.54915C100.301 8.96915 100.061 9.34248 99.7409 9.66915C99.4209 9.98915 99.0209 10.2458 98.5409 10.4391C98.0675 10.6258 97.5175 10.7191 96.8909 10.7191H94.2609V10.3891ZM95.8209 9.53915C95.8209 9.71915 95.8175 9.87248 95.8109 9.99915C95.8109 10.1258 95.8042 10.2325 95.7909 10.3191C95.9709 10.3258 96.1342 10.3325 96.2809 10.3391C96.4342 10.3391 96.5609 10.3391 96.6609 10.3391C96.7675 10.3391 96.8342 10.3391 96.8609 10.3391C97.2942 10.3391 97.6842 10.2591 98.0309 10.0991C98.3842 9.93915 98.6842 9.71915 98.9309 9.43915C99.1842 9.15248 99.3775 8.81915 99.5109 8.43915C99.6509 8.05248 99.7209 7.63581 99.7209 7.18915C99.7209 6.55581 99.6042 6.00915 99.3709 5.54915C99.1442 5.08248 98.7942 4.72248 98.3209 4.46915C97.8475 4.20915 97.2442 4.07915 96.5109 4.07915C96.2642 4.07915 96.0909 4.12915 95.9909 4.22915C95.8975 4.32915 95.8442 4.46915 95.8309 4.64915C95.8242 4.82915 95.8209 5.03915 95.8209 5.27915V9.53915ZM105.642 5.83915C105.622 5.51915 105.545 5.21581 105.412 4.92915C105.279 4.64248 105.085 4.40915 104.832 4.22915C104.579 4.04915 104.255 3.95915 103.862 3.95915C103.449 3.95915 103.132 4.07581 102.912 4.30915C102.692 4.54248 102.582 4.81581 102.582 5.12915C102.582 5.40915 102.662 5.64581 102.822 5.83915C102.982 6.02581 103.189 6.19248 103.442 6.33915C103.702 6.47915 103.975 6.61581 104.262 6.74915C104.515 6.86248 104.769 6.98581 105.022 7.11915C105.275 7.24581 105.505 7.39248 105.712 7.55915C105.919 7.72581 106.082 7.92581 106.202 8.15915C106.329 8.38581 106.392 8.65915 106.392 8.97915C106.392 9.34581 106.299 9.67248 106.112 9.95915C105.932 10.2458 105.669 10.4725 105.322 10.6391C104.975 10.7991 104.552 10.8791 104.052 10.8791C103.752 10.8791 103.442 10.8358 103.122 10.7491C102.802 10.6625 102.519 10.5358 102.272 10.3691L102.322 10.7991H101.802L101.742 8.66915H102.132C102.165 9.25581 102.369 9.70248 102.742 10.0091C103.115 10.3091 103.565 10.4591 104.092 10.4591C104.352 10.4591 104.592 10.4125 104.812 10.3191C105.032 10.2191 105.205 10.0758 105.332 9.88915C105.465 9.70248 105.532 9.47581 105.532 9.20915C105.532 8.90915 105.452 8.65915 105.292 8.45915C105.132 8.25915 104.925 8.08581 104.672 7.93915C104.419 7.79248 104.149 7.65248 103.862 7.51915C103.609 7.40581 103.359 7.28581 103.112 7.15915C102.865 7.03248 102.639 6.88915 102.432 6.72915C102.232 6.56248 102.069 6.36581 101.942 6.13915C101.822 5.91248 101.762 5.63915 101.762 5.31915C101.762 5.14581 101.792 4.95915 101.852 4.75915C101.912 4.55915 102.015 4.36915 102.162 4.18915C102.315 4.00248 102.522 3.85248 102.782 3.73915C103.049 3.61915 103.385 3.55915 103.792 3.55915C104.045 3.55915 104.329 3.59581 104.642 3.66915C104.962 3.73581 105.259 3.86915 105.532 4.06915L105.492 3.63915H106.002V5.83915H105.642Z" fill="#2D5727"/>
<path d="M8.51389 14C7.71738 14 6.96393 13.71 6.31812 13.2026C5.77994 13.4926 5.19871 13.6375 4.59595 13.6375C3.21822 13.6375 2.07728 12.8643 1.56063 11.632C1.47452 11.6078 1.38841 11.5836 1.3023 11.5595C0.634962 11.3662 0.161366 10.5929 0.0322031 9.57807C-0.118487 8.36989 0.247474 6.79926 1.38841 5.92937C1.5391 4.84201 1.96964 4.02045 2.61546 3.60967C2.93836 3.39219 3.39043 3.24721 3.92861 3.19888C4.03625 2.5948 4.25152 2.18401 4.639 1.84572C5.30635 1.2658 5.88758 1.21747 6.40423 1.67658C6.6195 1.50743 6.8563 1.36245 7.13615 1.2658C7.58822 1.09665 7.97571 1 8.32014 1C8.77221 1 9.1597 1.14498 9.50413 1.43494C10.0423 1.02416 10.6881 0.951673 11.4416 1.24164C11.4846 1.2658 11.4416 1.24164 11.4846 1.2658C11.8291 1.21747 12.195 1.2658 12.604 1.36245C13.0131 1.48327 13.3144 1.74907 13.5082 2.18401C13.9387 2.15985 14.3477 2.37732 14.9074 2.88476C15.2734 3.22305 15.5963 3.68216 15.8116 4.18959C17.0817 4.50372 17.9428 5.88104 18.0934 7.06506C18.115 7.28253 18.115 7.47584 18.0504 7.66914C19.1052 8.87732 19.1698 10.4721 18.7823 11.5353C18.4164 12.526 17.6629 13.0818 16.6727 13.0818C15.8546 13.0818 14.972 12.671 14.4338 12.0428C14.3693 12.1152 14.3262 12.1636 14.2831 12.2119C14.2186 12.2844 14.154 12.4052 14.1109 12.4777C13.7019 13.0576 13.2498 13.7342 12.2596 13.7342C11.786 13.7342 11.2478 13.5651 10.6235 13.2751C10.559 13.3476 10.4729 13.3959 10.4083 13.4442C9.84857 13.8067 9.18123 14 8.51389 14ZM6.72713 12.9368C7.24379 13.2993 7.86807 13.5167 8.51389 13.5167C9.09512 13.5167 9.65482 13.3476 10.1284 13.0576C9.9562 12.961 9.76246 12.8401 9.56871 12.7193C8.53541 12.1152 7.80349 12.0186 7.28684 12.0186C7.15768 12.4052 6.96393 12.7193 6.72713 12.9368ZM10.9249 12.9126C11.4416 13.1543 11.8721 13.2751 12.2596 13.2751C13.0346 13.2751 13.4005 12.7435 13.7665 12.1877C13.8311 12.0911 13.8957 11.9944 13.9602 11.9219C14.0033 11.8494 14.0894 11.777 14.1755 11.6803C14.0894 11.5353 14.0679 11.4145 14.0679 11.2937L14.0248 11.2695C13.8096 11.2212 13.745 11.197 13.6158 11.1487H13.5943C13.1637 11.6561 12.4749 11.8011 11.5277 11.6078C11.3339 12.1877 11.1402 12.6227 10.9249 12.9126ZM2.05575 11.632C2.52935 12.5743 3.47654 13.1301 4.59595 13.1301C5.06955 13.1301 5.52162 13.0335 5.93063 12.8401C5.73689 12.6227 5.54314 12.4052 5.37093 12.1394C4.98344 12.1394 4.66053 12.0911 4.3161 11.9944C3.8425 11.8494 3.39043 11.6078 3.00294 11.2454C2.65851 11.4628 2.35713 11.5836 2.05575 11.632ZM8.32014 11.6561C8.79374 11.777 9.26733 11.9944 9.78398 12.2844C10.0423 12.4535 10.3006 12.5743 10.5374 12.6952C10.7527 12.4294 10.9249 12.0428 11.0971 11.487C10.9249 11.4387 10.7742 11.3903 10.6451 11.342C10.2361 11.197 10.0638 10.7862 9.9562 10.3755C9.11664 10.3996 8.9229 10.7138 8.85832 10.9796C8.75068 11.342 8.55694 11.5595 8.32014 11.6561ZM5.93063 12.1152C6.05979 12.3085 6.21048 12.4535 6.36117 12.5985C6.53339 12.4777 6.68408 12.2844 6.81324 12.0186C6.66255 12.0186 6.53339 12.0428 6.40423 12.0669C6.23201 12.0911 6.08132 12.0911 5.93063 12.1152ZM14.7567 11.7045C15.2088 12.2361 15.9838 12.5743 16.6942 12.5743C17.1678 12.5743 18.0073 12.4052 18.4164 11.3178C18.7393 10.4238 18.6962 9.11896 17.8782 8.07993C17.5983 8.46654 17.1247 8.68401 16.6942 8.73234L16.7372 8.78067C17.4476 9.0223 17.8351 9.38476 17.9643 9.84387C18.115 10.448 18.0934 10.9071 17.8567 11.2454C17.6414 11.5836 17.2324 11.7286 16.6296 11.7286C16.1991 11.7286 15.79 11.6561 14.929 11.4628H14.9505C14.8429 11.5836 14.7998 11.6561 14.7567 11.7045ZM4.85428 9.62639C5.02649 10.3996 5.28482 11.0762 5.60772 11.632C5.86605 11.632 6.10285 11.6078 6.33965 11.5836C6.53339 11.5595 6.74866 11.5353 6.96393 11.5353C7.00699 11.4145 7.02851 11.2695 7.05004 11.1245C6.81324 10.8829 6.6195 10.5688 6.44728 10.2305C6.01674 10.1097 5.65078 9.79554 5.30635 9.2881C5.17718 9.38476 5.02649 9.50558 4.85428 9.62639ZM3.36891 10.9312C3.69181 11.197 4.03625 11.3903 4.42373 11.5112C4.639 11.5836 4.8758 11.6078 5.09107 11.632C4.83275 11.1487 4.63901 10.5688 4.48832 9.94052C4.25152 10.1338 4.05777 10.3271 3.86403 10.4963C3.69181 10.6413 3.5196 10.7862 3.36891 10.9312ZM7.416 11.5353C7.45906 11.5353 7.50211 11.5353 7.54517 11.5353C7.50211 11.5112 7.48058 11.487 7.43753 11.4628C7.416 11.5353 7.416 11.5353 7.416 11.5353ZM15.1873 11.0762C15.79 11.2212 16.2421 11.2695 16.6081 11.2695C17.0601 11.2695 17.34 11.1729 17.4692 10.9796C17.5983 10.7862 17.6199 10.448 17.4907 10.013C17.4261 9.74721 17.1678 9.52974 16.7157 9.33643C16.7157 9.45725 16.6942 9.57807 16.6511 9.69888C16.4574 10.2063 15.8762 10.4238 15.3165 10.6413C15.3165 10.7862 15.2734 10.9312 15.1873 11.0762ZM11.6353 11.1487C12.2596 11.2695 12.7332 11.2212 13.0561 11.0037C12.6256 10.8829 12.1735 10.7621 11.7645 10.6654C11.7214 10.8346 11.6784 11.0037 11.6353 11.1487ZM7.52364 10.9312C7.71738 11.1004 7.91113 11.197 8.08334 11.197C8.14792 11.197 8.34167 11.197 8.4493 10.8346C8.62152 10.2546 9.09512 9.94052 9.84857 9.89219C9.82704 9.89219 9.84857 9.89219 9.80551 9.62639C9.76246 9.33643 9.69788 9.04647 9.63329 8.7565C9.33191 8.53903 9.05206 8.22491 8.77221 7.78996V7.81413C8.49236 8.92565 8.16945 9.72305 7.63127 10.0613C7.58822 10.3755 7.56669 10.6654 7.52364 10.9312ZM1.79743 9.33643C1.66826 9.65056 1.58216 10.1822 1.81895 11.052C1.81895 11.0762 1.84048 11.1245 1.84048 11.1487C2.09881 11.1487 2.35713 11.052 2.65851 10.8587C2.3356 10.448 2.03422 9.94052 1.79743 9.33643ZM1.34536 6.60595C0.570381 7.37918 0.333583 8.5632 0.462745 9.52974C0.570381 10.3271 0.914815 10.9312 1.38841 11.1004C1.04398 9.79554 1.36688 9.11896 1.60368 8.80483C1.40994 8.07993 1.32383 7.30669 1.34536 6.60595ZM10.4083 10.4238C10.4944 10.7138 10.602 10.8587 10.7742 10.9071C10.8819 10.9554 11.0541 11.0037 11.2263 11.052C11.2694 10.9071 11.3124 10.7621 11.3555 10.5688C10.9895 10.4963 10.6881 10.448 10.4083 10.4238ZM14.6706 10.9554C14.6922 10.9554 14.7137 10.9796 14.7352 10.9796C14.7567 10.9554 14.7783 10.9312 14.7783 10.8829C14.7567 10.9071 14.7137 10.9312 14.6706 10.9554ZM13.8311 10.7379C13.9387 10.7621 14.0464 10.7862 14.154 10.8346C14.3047 10.5929 14.6061 10.448 14.9505 10.3271C14.929 10.0613 14.7998 9.8197 14.5415 9.5539C14.4338 9.45725 14.3262 9.33643 14.2401 9.21561C14.1325 9.5539 14.0679 9.84387 14.0248 10.0855C13.9818 10.303 13.9172 10.5204 13.8311 10.7379ZM11.8721 10.158C12.3672 10.2788 12.8839 10.448 13.4005 10.5929C13.4866 10.4238 13.5512 10.2063 13.5943 9.96468C13.6373 9.65056 13.745 9.2881 13.8957 8.80483L13.4866 8.7565C13.1207 8.85316 12.6686 8.97398 12.1304 9.04647C12.0874 9.23978 12.0443 9.43308 11.9798 9.62639C11.8721 10.1338 11.9798 9.62639 11.8721 10.158ZM2.12033 8.94981C2.3356 9.60223 2.65851 10.158 3.046 10.5929C3.21822 10.448 3.36891 10.2788 3.58418 10.1097C3.82097 9.89219 4.12235 9.67472 4.33763 9.40892H4.35915C4.29457 9.11896 4.27304 8.80483 4.22999 8.49071C4.16541 7.88662 4.10083 7.33085 4.03625 6.82342C3.75639 6.34015 3.47654 6.07435 3.17516 5.95353C3.02447 6.07435 2.93836 6.19517 2.93836 6.31598C2.91684 6.41264 2.95989 6.50929 3.046 6.60595C3.77792 7.59665 3.73487 8.24907 3.58418 8.61152C3.43349 8.94981 3.13211 9.11896 2.91684 9.11896C2.78767 9.11896 2.68004 9.07063 2.61546 8.99814C2.48629 8.87732 2.29255 8.85316 2.12033 8.94981ZM7.00699 10.2788C7.05004 10.3513 7.0931 10.4238 7.15768 10.4963C7.15768 10.4238 7.1792 10.3513 7.1792 10.2546C7.20073 10.2546 7.15768 10.2546 7.1792 10.2546C7.13615 10.2788 7.02851 10.2788 7.00699 10.2788ZM14.563 8.87732C14.6276 8.97398 14.7137 9.07063 14.7998 9.16729C15.1227 9.48141 15.2949 9.79554 15.3595 10.1338L15.4026 10.1097C15.79 9.96468 16.1775 9.77137 16.2636 9.50558C16.3067 9.40892 16.3067 9.31227 16.2636 9.16729C15.7685 9.04647 15.1658 8.94981 14.563 8.87732ZM10.2791 9.91636C10.602 9.94052 10.9895 9.98885 11.4416 10.0855C11.4846 9.91636 11.5277 9.72305 11.5707 9.52974C11.6138 9.38476 11.6353 9.23978 11.6784 9.0948C11.377 9.11896 11.0756 9.14312 10.7742 9.14312H10.7312C10.5159 9.14312 10.3222 9.11896 10.1284 9.04647C10.1715 9.21561 10.193 9.38476 10.2145 9.5539C10.2361 9.67472 10.2576 9.79554 10.2791 9.91636ZM6.77019 9.79554C6.8563 9.8197 6.96393 9.8197 7.07157 9.79554C7.11462 9.79554 7.1792 9.77138 7.22226 9.77138C7.26531 9.19145 7.28684 8.49071 7.39448 8.05576C7.07157 8.20074 6.77019 8.36989 6.49034 8.53903C6.51186 8.94981 6.59797 9.38476 6.77019 9.79554ZM5.69383 9.0223C5.86605 9.26394 6.03827 9.45725 6.23201 9.57807C6.1459 9.31227 6.10285 9.04647 6.08132 8.7565C5.93063 8.85316 5.80147 8.92565 5.69383 9.0223ZM7.93265 7.81413C7.76044 8.15242 7.69586 8.78067 7.6528 9.45725C7.95418 9.07063 8.16945 8.39405 8.34167 7.66914C8.21251 7.69331 8.08334 7.74164 7.93265 7.81413ZM4.61748 7.93494C4.639 8.10409 4.66053 8.24907 4.68206 8.41822C4.70359 8.65985 4.74664 8.87732 4.78969 9.0948C4.89733 9.0223 5.00497 8.92565 5.09107 8.85316C4.89733 8.58736 4.74664 8.24907 4.61748 7.93494ZM9.97773 8.46654C10.2145 8.61152 10.4729 8.68401 10.7312 8.68401H10.7527C11.0971 8.68401 11.4416 8.61152 11.786 8.5632C11.786 8.53903 11.8075 8.44238 11.8075 8.44238V8.49071C11.3124 8.39405 10.968 8.27323 10.7527 8.10409C10.3867 7.83829 10.3867 7.35502 10.4513 6.9684C10.0208 7.06506 9.61177 7.18587 9.22428 7.33085C9.65482 7.62082 9.84857 8.10409 9.97773 8.46654ZM4.46679 6.67844C4.63901 6.99256 4.81122 7.33085 4.96191 7.66914C5.1126 7.98327 5.26329 8.32156 5.43551 8.63569C5.62925 8.49071 5.84452 8.36989 6.03827 8.24907C6.05979 7.57249 6.25354 6.9684 6.59797 6.24349H6.57645C6.23201 6.171 6.01674 5.97769 5.9091 5.68773C5.84452 5.47026 5.75842 5.25279 5.71536 5.05948C5.22024 5.15613 4.74664 5.25279 4.3161 5.39777C4.38068 5.73606 4.42373 6.171 4.46679 6.67844ZM2.83073 8.58736C2.85225 8.58736 2.89531 8.61152 2.91684 8.61152C3.00294 8.61152 3.13211 8.53903 3.19669 8.39405C3.26127 8.24907 3.34738 7.78996 2.70156 6.92007C2.55088 6.7026 2.48629 6.48513 2.50782 6.24349C2.52935 6.12268 2.5724 6.02602 2.63698 5.9052C2.52935 5.92937 2.42171 5.95353 2.29255 6.00186C2.12033 6.07435 1.94812 6.14684 1.79743 6.24349C1.73284 6.9684 1.79743 7.74164 1.99117 8.49071C2.29255 8.34572 2.63698 8.39405 2.87378 8.61152L2.83073 8.58736ZM14.7998 8.41822C15.0797 8.46654 15.381 8.49071 15.6394 8.53903C15.5748 8.49071 15.5317 8.41821 15.4887 8.36989C15.2949 8.34572 15.0366 8.36989 14.7998 8.41822ZM16.2636 8.2974C16.6727 8.34572 17.2539 8.17658 17.5122 7.78996C17.1463 7.42751 16.6942 7.16171 16.156 6.94424C16.0914 7.28253 16.0053 7.57249 15.8762 7.81413C15.8546 7.86245 15.8116 7.93494 15.8116 7.98327C15.9838 8.0316 16.1345 8.15242 16.2636 8.2974ZM12.3672 8.12825C12.7332 8.17658 13.1207 8.22491 13.4651 8.27323C13.5512 8.24907 13.6373 8.22491 13.7234 8.20074C13.5728 7.74164 13.4866 7.21004 13.4436 6.53346C13.2714 6.53346 13.0776 6.55762 12.9054 6.55762C12.7117 6.99256 12.5395 7.5 12.3672 8.12825ZM13.8741 6.53346C13.9172 7.16171 14.0033 7.66915 14.154 8.07993C14.154 8.07993 14.154 8.07993 14.1755 8.07993L14.2616 7.88662C14.4338 7.45167 14.6061 7.01673 14.7352 6.60595C14.4554 6.55762 14.1755 6.53346 13.8741 6.53346ZM10.9249 6.87175C10.7742 7.54833 10.9464 7.66915 10.9895 7.71747C11.1617 7.83829 11.4846 7.95911 11.9367 8.05576C12.0874 7.5 12.2381 7.01673 12.4103 6.60595C11.9367 6.67844 11.4416 6.75093 10.9249 6.87175ZM7.11462 6.26766C6.77019 6.79926 6.55492 7.37918 6.49034 7.95911C6.8563 7.7658 7.24379 7.57249 7.6528 7.40335C7.82502 7.16171 8.04029 7.04089 8.32014 7.04089C8.19098 6.77509 8.06182 6.48513 7.93265 6.14684C7.63127 6.21933 7.35142 6.26766 7.11462 6.26766ZM15.1658 6.65427C15.0366 7.06506 14.8644 7.52416 14.6922 7.95911C14.8859 7.91078 15.1012 7.88662 15.2949 7.88662L15.4026 7.86245C15.4241 7.7658 15.4456 7.66914 15.5102 7.54833C15.6178 7.33085 15.7039 7.06506 15.747 6.77509C15.5748 6.72677 15.3595 6.67844 15.1658 6.65427ZM16.2206 6.4368C16.7803 6.63011 17.2539 6.92007 17.6629 7.28253C17.6629 7.2342 17.6629 7.18587 17.6629 7.13755C17.5337 6.21933 16.9095 5.15613 16.0268 4.76952C16.1775 5.32528 16.2421 5.88104 16.2206 6.4368ZM8.96595 6.92007C9.48261 6.75093 10.0208 6.60595 10.5805 6.46097C10.7097 6.05019 10.8819 5.59108 11.0756 5.10781C10.8388 5.1803 10.5805 5.27695 10.3437 5.37361C9.9562 5.51859 9.56871 5.63941 9.18123 5.78439C9.13817 6.00186 9.09512 6.19517 9.05206 6.41264C9.03054 6.58178 8.98748 6.75093 8.96595 6.92007ZM8.38472 6.02602C8.47083 6.21933 8.53541 6.38848 8.59999 6.55762C8.62152 6.46097 8.64305 6.38848 8.64305 6.29182C8.66457 6.171 8.6861 6.05019 8.70763 5.92937C8.59999 5.95353 8.49236 6.00186 8.38472 6.02602ZM11.6353 4.93866C11.5923 5.05948 11.5492 5.15613 11.5062 5.27695C11.3555 5.66357 11.2048 6.02602 11.0756 6.36431C11.6138 6.24349 12.1304 6.171 12.6256 6.12268H12.604C12.8408 5.66357 13.1422 5.30112 13.3575 5.01115V4.98699C13.3575 4.81784 13.379 4.67286 13.379 4.50372C12.8408 4.55204 12.195 4.74535 11.6353 4.93866ZM15.2949 6.171C15.4671 6.19517 15.6394 6.24349 15.8116 6.29182C15.8331 5.73606 15.7255 5.15613 15.5317 4.62453C15.4026 4.60037 15.2734 4.60037 15.1442 4.62453C15.4456 5.10781 15.381 5.76022 15.2949 6.171ZM13.8526 6.05019C14.197 6.05019 14.5415 6.07435 14.8429 6.12268C15.0366 5.27695 14.8429 4.93866 14.6276 4.74535C14.3693 4.84201 14.0894 5.01115 13.8311 5.22862C13.8526 5.49442 13.8526 5.76022 13.8526 6.05019ZM13.4221 5.66357C13.336 5.78439 13.2498 5.9052 13.1637 6.05019C13.2498 6.05019 13.336 6.05019 13.4221 6.05019C13.4221 5.92937 13.4221 5.78439 13.4221 5.66357ZM3.62723 5.66357C3.75639 5.73606 3.86403 5.83271 3.95014 5.95353C3.92861 5.80855 3.92861 5.66357 3.90708 5.54275C3.82097 5.59108 3.73487 5.61524 3.62723 5.66357ZM6.16743 4.98699C6.21048 5.15613 6.27507 5.32528 6.33965 5.51859C6.36117 5.59108 6.42576 5.78439 6.89935 5.80855C7.0931 5.54275 7.30837 5.30112 7.54517 5.08364L7.50211 4.96283C7.1792 4.89033 6.70561 4.9145 6.16743 4.98699ZM7.71738 5.54275C7.6528 5.61524 7.58822 5.68773 7.52364 5.73606C7.60975 5.7119 7.67433 5.7119 7.76044 5.68773C7.71738 5.54275 7.73891 5.59108 7.71738 5.54275ZM3.86403 3.70632C3.41196 3.75465 3.06753 3.8513 2.8092 4.04461C2.35713 4.33457 2.03422 4.9145 1.86201 5.66357C1.94812 5.61524 2.05575 5.59108 2.14186 5.54275C2.48629 5.42193 2.78767 5.39777 3.06753 5.4461H3.08905C3.30432 5.30112 3.45501 5.1803 3.88556 5.05948C3.86403 4.50372 3.8425 4.06877 3.86403 3.70632ZM8.06182 5.20446C8.10487 5.32528 8.14792 5.47026 8.21251 5.59108C8.40625 5.54275 8.62152 5.47026 8.85832 5.39777C9.09512 4.35874 9.37497 3.29554 9.82704 2.49814C9.7194 2.329 9.61177 2.18401 9.50413 2.0632C9.31039 2.25651 9.1597 2.47398 8.98748 2.69145C8.72916 3.0539 8.47083 3.39219 8.1264 3.56134C7.97571 3.63383 7.76044 3.70632 7.52364 3.73048C7.60975 3.97212 7.71738 4.23792 7.80349 4.47955C7.93265 4.52788 8.10487 4.60037 8.16945 4.79368C8.19098 4.93866 8.14792 5.08364 8.06182 5.20446ZM10.0638 2.95725C9.74093 3.5855 9.50413 4.40706 9.31039 5.22862C9.61177 5.13197 9.91315 5.01115 10.2145 4.9145C10.5805 4.79368 10.9464 4.6487 11.3124 4.52788C11.4846 4.1171 11.6353 3.68216 11.743 3.29554C11.6138 3.36803 11.5277 3.44052 11.4416 3.48885C11.2263 3.63383 11.0756 3.73048 10.8819 3.73048C10.5805 3.73048 10.3437 3.46468 10.0638 2.95725ZM4.3161 3.65799C4.29457 3.97212 4.29457 4.3829 4.3161 4.89033C4.72511 4.76952 5.17718 4.6487 5.62925 4.57621C5.56467 4.26208 5.54314 3.97212 5.54314 3.70632C5.13413 3.68216 4.70359 3.65799 4.3161 3.65799ZM13.8311 4.47955C13.8311 4.52788 13.8311 4.60037 13.8311 4.6487C13.8957 4.60037 13.9818 4.55204 14.0464 4.50372C13.9818 4.47955 13.9172 4.47955 13.8311 4.47955ZM5.97369 3.73048C5.97369 3.97212 6.01674 4.21375 6.05979 4.50372C6.53339 4.43123 6.98546 4.40706 7.32989 4.43123C7.24379 4.21375 7.1792 3.99628 7.0931 3.77881C6.72713 3.80297 6.36117 3.77881 5.97369 3.73048ZM12.2381 3.0539C12.1735 3.46468 12.0228 3.89963 11.8506 4.35874C12.4964 4.16543 12.9915 4.04461 13.379 3.99628C13.3575 3.56134 13.336 3.07807 13.2283 2.69145C13.0561 2.73978 12.8408 2.81227 12.5825 2.90892C12.4533 2.98141 12.3672 3.00558 12.2381 3.0539ZM13.8311 3.99628C13.9387 3.99628 14.0464 4.02045 14.154 4.04461C14.3693 4.09294 14.5415 4.16543 14.6922 4.23792C14.8859 4.18959 15.0797 4.16543 15.2949 4.14126C15.1227 3.80297 14.8859 3.51301 14.6276 3.27138C14.1755 2.86059 13.9172 2.71561 13.6804 2.69145C13.7665 3.07807 13.8096 3.53717 13.8311 3.99628ZM5.99521 3.27138C6.31812 3.29554 6.6195 3.3197 6.87782 3.3197C6.70561 2.90892 6.53339 2.5948 6.36117 2.35316C6.16743 2.5948 6.03827 2.88476 5.99521 3.27138ZM6.70561 2.01487C6.92088 2.30483 7.13615 2.71561 7.35142 3.27138C7.60975 3.24721 7.80349 3.19888 7.95418 3.12639C8.19098 3.00558 8.42778 2.69145 8.66457 2.37732C8.81526 2.15985 8.98748 1.94238 9.1597 1.74907C8.90137 1.57993 8.62152 1.48327 8.32014 1.48327C8.01876 1.48327 7.69585 1.55576 7.28684 1.72491C7.05004 1.7974 6.8563 1.91822 6.70561 2.01487ZM10.3222 2.5223C10.4944 2.83643 10.7312 3.24721 10.8603 3.24721C10.9249 3.24721 11.0541 3.17472 11.2048 3.07807C11.377 2.98141 11.5707 2.83643 11.8291 2.71561C11.8721 2.08736 11.6353 1.86989 11.3985 1.74907C11.011 1.82156 10.6451 2.08736 10.3222 2.5223ZM5.54314 3.22305C5.60773 2.73978 5.77994 2.329 6.05979 1.99071C5.71536 1.72491 5.3494 1.7974 4.89733 2.20818C4.61748 2.44981 4.46679 2.73978 4.38068 3.17472C4.74664 3.17472 5.17718 3.19888 5.54314 3.22305ZM12.0874 1.72491C12.2165 1.94238 12.2811 2.20818 12.2811 2.5223H12.3027C12.3027 2.5223 12.3027 2.5223 12.4533 2.47398C12.6686 2.37732 12.8624 2.30483 13.0561 2.25651C12.9269 2.03903 12.7332 1.89405 12.4964 1.82156C12.3457 1.77323 12.2165 1.74907 12.0874 1.72491ZM10.0854 2.0632C10.2791 1.86989 10.4513 1.67658 10.6666 1.55576C10.3652 1.5316 10.0854 1.60409 9.84857 1.77323C9.91315 1.86989 9.99926 1.96654 10.0854 2.0632Z" fill="#2D5727"/>
</svg>
