<?xml version="1.0" encoding="UTF-8" standalone="no" ?>
<!DOCTYPE svg PUBLIC "-//W3C//DTD SVG 1.1//EN" "http://www.w3.org/Graphics/SVG/1.1/DTD/svg11.dtd">
<svg xmlns="http://www.w3.org/2000/svg" xmlns:xlink="http://www.w3.org/1999/xlink" version="1.1" width="1024" height="1024" viewBox="0 0 1024 1024" xml:space="preserve">
<desc>Created with Fabric.js 2.3.6</desc>
<defs>
</defs>
	<g id="text-1" transform="translate(614.306532 518.793211) scale(2.581908 2.581908)">
		<text xml:space="preserve" font-family="Lora" font-size="28.524970273483948" font-style="normal" font-weight="normal" style="stroke: none; stroke-width: 0; stroke-dasharray: none; stroke-linecap: butt; stroke-linejoin: miter; stroke-miterlimit: 4; fill: rgb(255,255,255); fill-rule: nonzero; opacity: 1; white-space: pre;" ><tspan x="-119.9475" y="8.960834" >REACTIVE MINDS</tspan></text>
	</g>
<path id="icon-1" d="M 45.4 76.9 c -3.7 0 -7.2 -1.2 -10.2 -3.3 c -2.5 1.2 -5.2 1.8 -8 1.8 c -6.4 0 -11.7 -3.2 -14.1 -8.3 c -0.4 -0.1 -0.8 -0.2 -1.2 -0.3 c -3.1 -0.8 -5.3 -4 -5.9 -8.2 c -0.7 -5 1 -11.5 6.3 -15.1 C 13 39 15 35.6 18 33.9 c 1.5 -0.9 3.6 -1.5 6.1 -1.7 c 0.5 -2.5 1.5 -4.2 3.3 -5.6 c 3.1 -2.4 5.8 -2.6 8.2 -0.7 c 1 -0.7 2.1 -1.3 3.4 -1.7 c 2.1 -0.7 3.9 -1.1 5.5 -1.1 c 2.1 0 3.9 0.6 5.5 1.8 c 2.5 -1.7 5.5 -2 9 -0.8 c 0.2 0.1 0 0 0.2 0.1 c 1.6 -0.2 3.3 0 5.2 0.4 c 1.9 0.5 3.3 1.6 4.2 3.4 c 2 -0.1 3.9 0.8 6.5 2.9 c 1.7 1.4 3.2 3.3 4.2 5.4 c 5.9 1.3 9.9 7 10.6 11.9 c 0.1 0.9 0.1 1.7 -0.2 2.5 c 4.9 5 5.2 11.6 3.4 16 c -1.7 4.1 -5.2 6.4 -9.8 6.4 c -3.8 0 -7.9 -1.7 -10.4 -4.3 c -0.3 0.3 -0.5 0.5 -0.7 0.7 c -0.3 0.3 -0.6 0.8 -0.8 1.1 c -1.9 2.4 -4 5.2 -8.6 5.2 l 0 0 c -2.2 0 -4.7 -0.7 -7.6 -1.9 c -0.3 0.3 -0.7 0.5 -1 0.7 C 51.6 76.1 48.5 76.9 45.4 76.9 L 45.4 76.9 z M 37.1 72.5 c 2.4 1.5 5.3 2.4 8.3 2.4 l 0 0 c 2.7 0 5.3 -0.7 7.5 -1.9 c -0.8 -0.4 -1.7 -0.9 -2.6 -1.4 c -4.8 -2.5 -8.2 -2.9 -10.6 -2.9 C 39.1 70.3 38.2 71.6 37.1 72.5 z M 56.6 72.4 c 2.4 1 4.4 1.5 6.2 1.5 l 0 0 c 3.6 0 5.3 -2.2 7 -4.5 c 0.3 -0.4 0.6 -0.8 0.9 -1.1 c 0.2 -0.3 0.6 -0.6 1 -1 c -0.4 -0.6 -0.5 -1.1 -0.5 -1.6 L 71 65.6 l 0 0 c -1 -0.2 -1.3 -0.3 -1.9 -0.5 H 69 c -2 2.1 -5.2 2.7 -9.6 1.9 l 0 0 l 0 0 C 58.5 69.4 57.6 71.2 56.6 72.4 z M 15.4 67.1 c 2.2 3.9 6.6 6.2 11.8 6.2 c 2.2 0 4.3 -0.4 6.2 -1.2 c -0.9 -0.9 -1.8 -1.8 -2.6 -2.9 l 0 0 c -1.8 0 -3.3 -0.2 -4.9 -0.6 c -2.2 -0.6 -4.3 -1.6 -6.1 -3.1 l 0 0 l 0 0 C 18.2 66.4 16.8 66.9 15.4 67.1 z M 44.5 67.2 c 2.2 0.5 4.4 1.4 6.8 2.6 c 1.2 0.7 2.4 1.2 3.5 1.7 c 1 -1.1 1.8 -2.7 2.6 -5 c -0.8 -0.2 -1.5 -0.4 -2.1 -0.6 c -1.9 -0.6 -2.7 -2.3 -3.2 -4 c -3.9 0.1 -4.8 1.4 -5.1 2.5 C 46.5 65.9 45.6 66.8 44.5 67.2 z M 33.4 69.1 c 0.6 0.8 1.3 1.4 2 2 c 0.8 -0.5 1.5 -1.3 2.1 -2.4 c -0.7 0 -1.3 0.1 -1.9 0.2 C 34.8 69 34.1 69 33.4 69.1 z M 74.4 67.4 c 2.1 2.2 5.7 3.6 9 3.6 c 2.2 0 6.1 -0.7 8 -5.2 c 1.5 -3.7 1.3 -9.1 -2.5 -13.4 c -1.3 1.6 -3.5 2.5 -5.5 2.7 l 0.2 0.2 c 3.3 1 5.1 2.5 5.7 4.4 c 0.7 2.5 0.6 4.4 -0.5 5.8 c -1 1.4 -2.9 2 -5.7 2 c -2 0 -3.9 -0.3 -7.9 -1.1 l 0 0 h 0.1 C 74.8 66.9 74.6 67.2 74.4 67.4 z M 28.4 58.8 c 0.8 3.2 2 6 3.5 8.3 c 1.2 0 2.3 -0.1 3.4 -0.2 c 0.9 -0.1 1.9 -0.2 2.9 -0.2 c 0.2 -0.5 0.3 -1.1 0.4 -1.7 c -1.1 -1 -2 -2.3 -2.8 -3.7 l 0 0 c -2 -0.5 -3.7 -1.8 -5.3 -3.9 C 29.9 57.8 29.2 58.3 28.4 58.8 z M 21.5 64.2 c 1.5 1.1 3.1 1.9 4.9 2.4 c 1 0.3 2.1 0.4 3.1 0.5 c -1.2 -2 -2.1 -4.4 -2.8 -7 c -1.1 0.8 -2 1.6 -2.9 2.3 C 23 63 22.2 63.6 21.5 64.2 z M 40.3 66.7 c 0.2 0 0.4 0 0.6 0 c -0.2 -0.1 -0.3 -0.2 -0.5 -0.3 C 40.3 66.7 40.3 66.7 40.3 66.7 z M 76.4 64.8 c 2.8 0.6 4.9 0.8 6.6 0.8 c 2.1 0 3.4 -0.4 4 -1.2 c 0.6 -0.8 0.7 -2.2 0.1 -4 c -0.3 -1.1 -1.5 -2 -3.6 -2.8 c 0 0.5 -0.1 1 -0.3 1.5 c -0.9 2.1 -3.6 3 -6.2 3.9 C 77 63.6 76.8 64.2 76.4 64.8 z M 59.9 65.1 c 2.9 0.5 5.1 0.3 6.6 -0.6 c -2 -0.5 -4.1 -1 -6 -1.4 C 60.3 63.8 60.1 64.5 59.9 65.1 z M 40.8 64.2 c 0.9 0.7 1.8 1.1 2.6 1.1 l 0 0 c 0.3 0 1.2 0 1.7 -1.5 c 0.8 -2.4 3 -3.7 6.5 -3.9 l 0 0 l 0 0 c -0.1 0 0 0 -0.2 -1.1 c -0.2 -1.2 -0.5 -2.4 -0.8 -3.6 c -1.4 -0.9 -2.7 -2.2 -4 -4 v 0.1 l 0 0 c -1.3 4.6 -2.8 7.9 -5.3 9.3 l 0 0 C 41.1 61.9 41 63.1 40.8 64.2 z M 14.2 57.6 c -0.6 1.3 -1 3.5 0.1 7.1 c 0 0.1 0.1 0.3 0.1 0.4 c 1.2 0 2.4 -0.4 3.8 -1.2 C 16.7 62.2 15.3 60.1 14.2 57.6 z M 12.1 46.3 C 8.5 49.5 7.4 54.4 8 58.4 c 0.5 3.3 2.1 5.8 4.3 6.5 c -1.6 -5.4 -0.1 -8.2 1 -9.5 l 0 0 l 0 0 C 12.4 52.4 12 49.2 12.1 46.3 z M 54.2 62.1 c 0.4 1.2 0.9 1.8 1.7 2 c 0.5 0.2 1.3 0.4 2.1 0.6 c 0.2 -0.6 0.4 -1.2 0.6 -2 C 56.9 62.4 55.5 62.2 54.2 62.1 z M 74 64.3 c 0.1 0 0.2 0.1 0.3 0.1 c 0.1 -0.1 0.2 -0.2 0.2 -0.4 C 74.4 64.1 74.2 64.2 74 64.3 z M 70.1 63.4 c 0.5 0.1 1 0.2 1.5 0.4 c 0.7 -1 2.1 -1.6 3.7 -2.1 c -0.1 -1.1 -0.7 -2.1 -1.9 -3.2 c -0.5 -0.4 -1 -0.9 -1.4 -1.4 c -0.5 1.4 -0.8 2.6 -1 3.6 C 70.8 61.6 70.5 62.5 70.1 63.4 z M 61 61 c 2.3 0.5 4.7 1.2 7.1 1.8 c 0.4 -0.7 0.7 -1.6 0.9 -2.6 c 0.2 -1.3 0.7 -2.8 1.4 -4.8 l -1.9 -0.2 c -1.7 0.4 -3.8 0.9 -6.3 1.2 c -0.2 0.8 -0.4 1.6 -0.7 2.4 C 61 60.9 61.5 58.8 61 61 L 61 61 L 61 61 z M 15.7 56 c 1 2.7 2.5 5 4.3 6.8 c 0.8 -0.6 1.5 -1.3 2.5 -2 c 1.1 -0.9 2.5 -1.8 3.5 -2.9 l 0 0 h 0.1 c -0.3 -1.2 -0.4 -2.5 -0.6 -3.8 c -0.3 -2.5 -0.6 -4.8 -0.9 -6.9 c -1.3 -2 -2.6 -3.1 -4 -3.6 c -0.7 0.5 -1.1 1 -1.1 1.5 c -0.1 0.4 0.1 0.8 0.5 1.2 c 3.4 4.1 3.2 6.8 2.5 8.3 c -0.7 1.4 -2.1 2.1 -3.1 2.1 c -0.6 0 -1.1 -0.2 -1.4 -0.5 C 17.4 55.7 16.5 55.6 15.7 56 z M 38.4 61.5 c 0.2 0.3 0.4 0.6 0.7 0.9 c 0 -0.3 0.1 -0.6 0.1 -1 c -0.1 0 0.1 0 0 0 C 39 61.5 38.5 61.5 38.4 61.5 z M 73.5 55.7 c 0.3 0.4 0.7 0.8 1.1 1.2 c 1.5 1.3 2.3 2.6 2.6 4 l 0.2 -0.1 l 0 0 c 1.8 -0.6 3.6 -1.4 4 -2.5 c 0.2 -0.4 0.2 -0.8 0 -1.4 C 79.1 56.4 76.3 56 73.5 55.7 z M 53.6 60 c 1.5 0.1 3.3 0.3 5.4 0.7 c 0.2 -0.7 0.4 -1.5 0.6 -2.3 c 0.2 -0.6 0.3 -1.2 0.5 -1.8 c -1.4 0.1 -2.8 0.2 -4.2 0.2 h -0.2 c -1 0 -1.9 -0.1 -2.8 -0.4 c 0.2 0.7 0.3 1.4 0.4 2.1 C 53.4 59 53.5 59.5 53.6 60 z M 37.3 59.5 c 0.4 0.1 0.9 0.1 1.4 0 c 0.2 0 0.5 -0.1 0.7 -0.1 l 0 0 c 0.2 -2.4 0.3 -5.3 0.8 -7.1 c -1.5 0.6 -2.9 1.3 -4.2 2 C 36.1 56 36.5 57.8 37.3 59.5 z M 32.3 56.3 c 0.8 1 1.6 1.8 2.5 2.3 c -0.4 -1.1 -0.6 -2.2 -0.7 -3.4 C 33.4 55.6 32.8 55.9 32.3 56.3 z M 42.7 51.3 c -0.8 1.4 -1.1 4 -1.3 6.8 c 1.4 -1.6 2.4 -4.4 3.2 -7.4 C 44 50.8 43.4 51 42.7 51.3 z M 27.3 51.8 c 0.1 0.7 0.2 1.3 0.3 2 c 0.1 1 0.3 1.9 0.5 2.8 c 0.5 -0.3 1 -0.7 1.4 -1 C 28.6 54.5 27.9 53.1 27.3 51.8 z M 52.2 54 c 1.1 0.6 2.3 0.9 3.5 0.9 h 0.1 c 1.6 0 3.2 -0.3 4.8 -0.5 c 0 -0.1 0.1 -0.5 0.1 -0.5 l 0 0 v 0.2 c -2.3 -0.4 -3.9 -0.9 -4.9 -1.6 c -1.7 -1.1 -1.7 -3.1 -1.4 -4.7 c -2 0.4 -3.9 0.9 -5.7 1.5 C 50.7 50.5 51.6 52.5 52.2 54 z M 26.6 46.6 c 0.8 1.3 1.6 2.7 2.3 4.1 c 0.7 1.3 1.4 2.7 2.2 4 c 0.9 -0.6 1.9 -1.1 2.8 -1.6 l 0 0 c 0.1 -2.8 1 -5.3 2.6 -8.3 l 0 0 l -0.1 0 c -1.6 -0.3 -2.6 -1.1 -3.1 -2.3 c -0.3 -0.9 -0.7 -1.8 -0.9 -2.6 c -2.3 0.4 -4.5 0.8 -6.5 1.4 C 26.2 42.7 26.4 44.5 26.6 46.6 z M 19 54.5 c 0.1 0 0.3 0.1 0.4 0.1 c 0.4 0 1 -0.3 1.3 -0.9 c 0.3 -0.6 0.7 -2.5 -2.3 -6.1 c -0.7 -0.9 -1 -1.8 -0.9 -2.8 c 0.1 -0.5 0.3 -0.9 0.6 -1.4 c -0.5 0.1 -1 0.2 -1.6 0.4 c -0.8 0.3 -1.6 0.6 -2.3 1 c -0.3 3 0 6.2 0.9 9.3 c 1.4 -0.6 3 -0.4 4.1 0.5 L 19 54.5 z M 74.6 53.8 c 1.3 0.2 2.7 0.3 3.9 0.5 c -0.3 -0.2 -0.5 -0.5 -0.7 -0.7 C 76.9 53.5 75.7 53.6 74.6 53.8 z M 81.4 53.3 c 1.9 0.2 4.6 -0.5 5.8 -2.1 c -1.7 -1.5 -3.8 -2.6 -6.3 -3.5 c -0.3 1.4 -0.7 2.6 -1.3 3.6 c -0.1 0.2 -0.3 0.5 -0.3 0.7 C 80.1 52.2 80.8 52.7 81.4 53.3 z M 63.3 52.6 c 1.7 0.2 3.5 0.4 5.1 0.6 c 0.4 -0.1 0.8 -0.2 1.2 -0.3 l 0 0 c -0.7 -1.9 -1.1 -4.1 -1.3 -6.9 c -0.8 0 -1.7 0.1 -2.5 0.1 C 64.9 47.9 64.1 50 63.3 52.6 z M 70.3 46 c 0.2 2.6 0.6 4.7 1.3 6.4 c 0 0 0 0 0.1 0 l 0.4 -0.8 c 0.8 -1.8 1.6 -3.6 2.2 -5.3 C 73 46.1 71.7 46 70.3 46 z M 56.6 47.4 c -0.7 2.8 0.1 3.3 0.3 3.5 c 0.8 0.5 2.3 1 4.4 1.4 c 0.7 -2.3 1.4 -4.3 2.2 -6 C 61.3 46.6 59 46.9 56.6 47.4 z M 38.9 44.9 c -1.6 2.2 -2.6 4.6 -2.9 7 c 1.7 -0.8 3.5 -1.6 5.4 -2.3 c 0.8 -1 1.8 -1.5 3.1 -1.5 c -0.6 -1.1 -1.2 -2.3 -1.8 -3.7 C 41.3 44.7 40 44.9 38.9 44.9 z M 76.3 46.5 c -0.6 1.7 -1.4 3.6 -2.2 5.4 c 0.9 -0.2 1.9 -0.3 2.8 -0.3 l 0.5 -0.1 l 0 0 c 0.1 -0.4 0.2 -0.8 0.5 -1.3 c 0.5 -0.9 0.9 -2 1.1 -3.2 C 78.2 46.8 77.2 46.6 76.3 46.5 z M 81.2 45.6 c 2.6 0.8 4.8 2 6.7 3.5 c 0 -0.2 0 -0.4 0 -0.6 c -0.6 -3.8 -3.5 -8.2 -7.6 -9.8 C 81 41 81.3 43.3 81.2 45.6 L 81.2 45.6 L 81.2 45.6 z M 47.5 47.6 L 47.5 47.6 c 2.4 -0.7 4.9 -1.3 7.5 -1.9 c 0.6 -1.7 1.4 -3.6 2.3 -5.6 c -1.1 0.3 -2.3 0.7 -3.4 1.1 c -1.8 0.6 -3.6 1.1 -5.4 1.7 c -0.2 0.9 -0.4 1.7 -0.6 2.6 C 47.8 46.2 47.6 46.9 47.5 47.6 L 47.5 47.6 z M 44.8 43.9 c 0.4 0.8 0.7 1.5 1 2.2 c 0.1 -0.4 0.2 -0.7 0.2 -1.1 c 0.1 -0.5 0.2 -1 0.3 -1.5 l 0 0 l 0 0 C 45.8 43.6 45.3 43.8 44.8 43.9 z M 59.9 39.4 c -0.2 0.5 -0.4 0.9 -0.6 1.4 c -0.7 1.6 -1.4 3.1 -2 4.5 c 2.5 -0.5 4.9 -0.8 7.2 -1 h -0.1 c 1.1 -1.9 2.5 -3.4 3.5 -4.6 v -0.1 c 0 -0.7 0.1 -1.3 0.1 -2 C 65.5 37.8 62.5 38.6 59.9 39.4 z M 76.9 44.5 c 0.8 0.1 1.6 0.3 2.4 0.5 c 0.1 -2.3 -0.4 -4.7 -1.3 -6.9 c -0.6 -0.1 -1.2 -0.1 -1.8 0 C 77.6 40.1 77.3 42.8 76.9 44.5 z M 70.2 44 c 1.6 0 3.2 0.1 4.6 0.3 c 0.9 -3.5 0 -4.9 -1 -5.7 c -1.2 0.4 -2.5 1.1 -3.7 2 C 70.2 41.7 70.2 42.8 70.2 44 z M 68.2 42.4 c -0.4 0.5 -0.8 1 -1.2 1.6 c 0.4 0 0.8 0 1.2 0 C 68.2 43.5 68.2 42.9 68.2 42.4 z M 22.7 42.4 c 0.6 0.3 1.1 0.7 1.5 1.2 c -0.1 -0.6 -0.1 -1.2 -0.2 -1.7 C 23.6 42.1 23.2 42.2 22.7 42.4 z M 34.5 39.6 c 0.2 0.7 0.5 1.4 0.8 2.2 c 0.1 0.3 0.4 1.1 2.6 1.2 c 0.9 -1.1 1.9 -2.1 3 -3 l -0.2 -0.5 C 39.2 39.2 37 39.3 34.5 39.6 z M 41.7 41.9 c -0.3 0.3 -0.6 0.6 -0.9 0.8 c 0.4 -0.1 0.7 -0.1 1.1 -0.2 C 41.7 41.9 41.8 42.1 41.7 41.9 z M 23.8 34.3 c -2.1 0.2 -3.7 0.6 -4.9 1.4 c -2.1 1.2 -3.6 3.6 -4.4 6.7 c 0.4 -0.2 0.9 -0.3 1.3 -0.5 c 1.6 -0.5 3 -0.6 4.3 -0.4 l 0 0 h 0.1 c 1 -0.6 1.7 -1.1 3.7 -1.6 l 0 0 l 0 0 C 23.8 37.6 23.7 35.8 23.8 34.3 z M 43.3 40.5 c 0.2 0.5 0.4 1.1 0.7 1.6 c 0.9 -0.2 1.9 -0.5 3 -0.8 c 1.1 -4.3 2.4 -8.7 4.5 -12 c -0.5 -0.7 -1 -1.3 -1.5 -1.8 c -0.9 0.8 -1.6 1.7 -2.4 2.6 c -1.2 1.5 -2.4 2.9 -4 3.6 c -0.7 0.3 -1.7 0.6 -2.8 0.7 c 0.4 1 0.9 2.1 1.3 3.1 c 0.6 0.2 1.4 0.5 1.7 1.3 C 43.9 39.4 43.7 40 43.3 40.5 z M 52.6 31.2 c -1.5 2.6 -2.6 6 -3.5 9.4 c 1.4 -0.4 2.8 -0.9 4.2 -1.3 c 1.7 -0.5 3.4 -1.1 5.1 -1.6 c 0.8 -1.7 1.5 -3.5 2 -5.1 c -0.6 0.3 -1 0.6 -1.4 0.8 c -1 0.6 -1.7 1 -2.6 1 C 55 34.4 53.9 33.3 52.6 31.2 z M 25.9 34.1 c -0.1 1.3 -0.1 3 0 5.1 c 1.9 -0.5 4 -1 6.1 -1.3 c -0.3 -1.3 -0.4 -2.5 -0.4 -3.6 C 29.7 34.2 27.7 34.1 25.9 34.1 z M 70.1 37.5 c 0 0.2 0 0.5 0 0.7 c 0.3 -0.2 0.7 -0.4 1 -0.6 C 70.8 37.5 70.5 37.5 70.1 37.5 z M 33.6 34.4 c 0 1 0.2 2 0.4 3.2 c 2.2 -0.3 4.3 -0.4 5.9 -0.3 c -0.4 -0.9 -0.7 -1.8 -1.1 -2.7 C 37.1 34.7 35.4 34.6 33.6 34.4 z M 62.7 31.6 c -0.3 1.7 -1 3.5 -1.8 5.4 c 3 -0.8 5.3 -1.3 7.1 -1.5 c -0.1 -1.8 -0.2 -3.8 -0.7 -5.4 c -0.8 0.2 -1.8 0.5 -3 0.9 C 63.7 31.3 63.3 31.4 62.7 31.6 z M 70.1 35.5 c 0.5 0 1 0.1 1.5 0.2 c 1 0.2 1.8 0.5 2.5 0.8 l 0 0 l 0 0 c 0.9 -0.2 1.8 -0.3 2.8 -0.4 c -0.8 -1.4 -1.9 -2.6 -3.1 -3.6 c -2.1 -1.7 -3.3 -2.3 -4.4 -2.4 C 69.8 31.7 70 33.6 70.1 35.5 L 70.1 35.5 z M 33.7 32.5 c 1.5 0.1 2.9 0.2 4.1 0.2 c -0.8 -1.7 -1.6 -3 -2.4 -4 C 34.5 29.7 33.9 30.9 33.7 32.5 z M 37 27.3 c 1 1.2 2 2.9 3 5.2 c 1.2 -0.1 2.1 -0.3 2.8 -0.6 c 1.1 -0.5 2.2 -1.8 3.3 -3.1 c 0.7 -0.9 1.5 -1.8 2.3 -2.6 c -1.2 -0.7 -2.5 -1.1 -3.9 -1.1 s -2.9 0.3 -4.8 1 C 38.6 26.4 37.7 26.9 37 27.3 z M 53.8 29.4 c 0.8 1.3 1.9 3 2.5 3 c 0.3 0 0.9 -0.3 1.6 -0.7 c 0.8 -0.4 1.7 -1 2.9 -1.5 c 0.2 -2.6 -0.9 -3.5 -2 -4 C 57 26.5 55.3 27.6 53.8 29.4 z M 31.6 32.3 L 31.6 32.3 c 0.3 -2 1.1 -3.7 2.4 -5.1 c -1.6 -1.1 -3.3 -0.8 -5.4 0.9 c -1.3 1 -2 2.2 -2.4 4 C 27.9 32.1 29.9 32.2 31.6 32.3 L 31.6 32.3 z M 62 26.1 c 0.6 0.9 0.9 2 0.9 3.3 H 63 l 0 0 c 0 0 0 0 0.7 -0.2 c 1 -0.4 1.9 -0.7 2.8 -0.9 c -0.6 -0.9 -1.5 -1.5 -2.6 -1.8 C 63.2 26.3 62.6 26.2 62 26.1 z M 52.7 27.5 L 52.7 27.5 c 0.9 -0.8 1.7 -1.6 2.7 -2.1 c -1.4 -0.1 -2.7 0.2 -3.8 0.9 C 51.9 26.7 52.3 27.1 52.7 27.5 L 52.7 27.5 z" style="stroke: none; stroke-width: 1; stroke-dasharray: none; stroke-linecap: butt; stroke-linejoin: miter; stroke-miterlimit: 4; fill: rgb(255,255,255); fill-rule: nonzero; opacity: 1;" transform="translate(178.69731 511.909925) scale(1.763312 1.763312) translate(-49.98080574057456, -50) " stroke-linecap="round" />
</svg>